<svg id="图层_1" data-name="图层 1" xmlns="http://www.w3.org/2000/svg" viewBox="0 0 300 300"><defs><style>.cls-1{fill:#f56070;}.cls-2,.cls-3{fill:#1e1a31;}.cls-3{font-size:69.57px;font-family:Helvetica-Bold, Helvetica;font-weight:700;}</style></defs><path class="cls-1" d="M150,300A150,150,0,1,0,0,150,150,150,0,0,0,150,300Z"/><path class="cls-2" d="M55,125.77a5.67,5.67,0,0,1,4.18,1.65,5.35,5.35,0,0,1,1.66,4,5.58,5.58,0,0,1-1.66,4.11A5.68,5.68,0,0,1,55,137.23a5.93,5.93,0,0,1-4.25-1.66,5.58,5.58,0,0,1-1.66-4.11,5.35,5.35,0,0,1,1.66-4A5.92,5.92,0,0,1,55,125.77Zm-5.11,15.42H60.07v37H49.91Z"/><text class="cls-3" transform="translate(62.65 178.07)">COMP</text></svg>