<?xml version="1.0" encoding="utf-8"?>
<!-- Generator: Adobe Illustrator 25.0.1, SVG Export Plug-In . SVG Version: 6.00 Build 0)  -->
<svg version="1.1" id="图层_1" xmlns="http://www.w3.org/2000/svg" xmlns:xlink="http://www.w3.org/1999/xlink" x="0px" y="0px"
	 viewBox="0 0 300 300" style="enable-background:new 0 0 300 300;" xml:space="preserve">
<style type="text/css">
	.st0{fill:#F56070;}
</style>
<path class="st0" d="M150,300c82.8,0,150-67.2,150-150S232.8,0,150,0S0,67.2,0,150S67.2,300,150,300z"/>
<g>
	<path d="M150,271l28.6-161.1c27.3,0,35.9,3,37.2,15.2c0,0,18.3-6.8,27.6-20.7c-36.1-16.7-72.3-17.5-72.3-17.5L150,112.7l0,0
		L128.9,87c0,0-36.2,0.8-72.3,17.5c9.2,13.9,27.6,20.7,27.6,20.7c1.3-12.2,9.9-15.2,37-15.2L150,271"/>
	<path d="M150,79.5c29.1-0.2,62.5,4.5,96.7,19.4c4.6-8.2,5.7-11.8,5.7-11.8c-37.3-14.8-72.3-19.8-102.4-20
		c-30.1,0.1-65.1,5.2-102.4,20c0,0,1.7,4.5,5.7,11.8C87.5,84,120.9,79.2,150,79.5L150,79.5"/>
</g>
</svg>
