<svg id="图层_1" data-name="图层 1" xmlns="http://www.w3.org/2000/svg" viewBox="0 0 300 300"><defs><style>.cls-1{fill:#f56070;}.cls-2,.cls-3{fill:#1e1a31;}.cls-3{font-size:96.05px;font-family:Helvetica-Bold, Helvetica;font-weight:700;}</style></defs><path class="cls-1" d="M150,300A150,150,0,1,0,0,150,150,150,0,0,0,150,300Z"/><path class="cls-2" d="M68,114.2a7.89,7.89,0,0,1,5.8,2.3,7.43,7.43,0,0,1,2.3,5.6,7.74,7.74,0,0,1-2.3,5.7,7.89,7.89,0,0,1-5.8,2.3,8.21,8.21,0,0,1-5.9-2.3,7.7,7.7,0,0,1-2.3-5.7,7.39,7.39,0,0,1,2.3-5.6A8.21,8.21,0,0,1,68,114.2Zm-7.1,21.4H75V187H60.94Z"/><text class="cls-3" transform="translate(78.76 186.53)">UNI</text></svg>