<?xml version="1.0" encoding="utf-8"?>
<!-- Generator: Adobe Illustrator 25.0.1, SVG Export Plug-In . SVG Version: 6.00 Build 0)  -->
<svg version="1.1" id="图层_1" xmlns="http://www.w3.org/2000/svg" xmlns:xlink="http://www.w3.org/1999/xlink" x="0px" y="0px"
	 viewBox="0 0 300 300" style="enable-background:new 0 0 300 300;" xml:space="preserve">
<style type="text/css">
	.st0{fill:#6E97FF;}
	.st1{fill:#1E1A31;}
	.st2{opacity:0.5;fill-rule:evenodd;clip-rule:evenodd;fill:#1E1A31;enable-background:new    ;}
	.st3{fill-rule:evenodd;clip-rule:evenodd;fill:#1E1A31;}
	.st4{font-family:'Helvetica-Bold';}
	.st5{font-size:44.9909px;}
</style>
<path class="st0" d="M150,300c82.8,0,150-67.2,150-150C300,67.2,232.8,0,150,0C67.2,0,0,67.2,0,150C0,232.8,67.2,300,150,300z"/>
<path class="st2" d="M81.4,208.5l-12.5-8.9l78.5-109.1l12.5,8.9L81.4,208.5z"/>
<path class="st3" d="M121.9,142.3h4.2c19.3,0,34.9,15.6,34.9,34.8c0,19.2-15.6,34.8-34.9,34.8H74.7c-4.2,0-7.7-3.4-7.7-7.7
	c0-4.2,3.4-7.6,7.7-7.6h51.4c10.8,0,19.6-8.7,19.6-19.5c0-10.8-8.8-19.5-19.6-19.5h-19.9h0h-4.2c-19.3,0-34.9-15.6-34.9-34.8
	C67,103.6,82.6,88,101.9,88h51.4c4.2,0,7.7,3.4,7.7,7.7c0,4.2-3.4,7.7-7.7,7.7h-51.4c-10.8,0-19.6,8.7-19.6,19.5s8.8,19.5,19.6,19.5
	H121.9C121.9,142.3,121.9,142.3,121.9,142.3z"/>
<text transform="matrix(6.123234e-17 -1 1 6.123234e-17 220.9995 212.9992)" class="st1 st4 st5">AAVE</text>
</svg>
