<?xml version="1.0" encoding="utf-8"?>
<!-- Generator: Adobe Illustrator 25.0.1, SVG Export Plug-In . SVG Version: 6.00 Build 0)  -->
<svg version="1.1" id="图层_1" xmlns="http://www.w3.org/2000/svg" xmlns:xlink="http://www.w3.org/1999/xlink" x="0px" y="0px"
	 viewBox="0 0 223.9 210.1" style="enable-background:new 0 0 223.9 210.1;" xml:space="preserve">
<style type="text/css">
	.st0{fill:#355CD1;}
</style>
<path class="st0" d="M222.9,122.7c-0.9,7-2.3,17.3-7.3,29.2c-3.5,8.3-8.2,16-14,23.3c-5.8,7.2-12,14.4-19.1,20.2
	c-6.4,5.3-14.1,9.1-21.7,12.7c-2.5,1.2-6.8,1.3-9.2-1.1c-1.6-1.5-3.3-4.1-2.7-7.6c0.4-2.6,2.6-4.6,4.5-5.7
	c10.6-5.8,20.4-12.7,27.8-22.3c17.4-22.7,29.2-47.5,23.5-77.1c-3.6-18.4-12.4-34.5-25.5-48.1c-15.7-16.4-34.9-25.5-57.3-28.1
	C90,14.3,63.6,24.9,41.7,47.8C30.3,59.8,22,73.6,18.7,89.6c-4.3,21-3,41.6,7.5,61.1c7.1,13.2,15.9,25,28.2,33.5
	c11.8,8.1,24.6,11.2,39.5,7.9c15-3.4,23.6-12.6,29.6-25.5c2.3-4.9,1.3-6.8-3.9-6.6c-9.9,0.4-17.1-4.1-23.2-11.4
	c-6.9-8.3-8.3-18-5.4-27.7c2.8-9.1,7.6-17.5,11.4-26.3c0.8-1.8,1.7-4.8,0.8-5.9c-1.1-1.4-4-2.3-6-2.1C91.2,87,85.3,88,79.4,88.9
	c-5.3,0.8-9.7-1.7-10.4-6c-0.8-5.3,1.7-8.3,7.6-9.7c6-1.4,19-3.4,28.5-1.9c10.3,1.6,18.6,12.4,14.8,22.1
	c-3.9,9.8-8.5,19.4-12.6,29.2c-3.8,8.9,0,17.8,8.9,21.2c4.7,1.8,13.5-1.1,16-6.4c4.4-9.6,8.2-19.5,11.7-29.4
	c2.8-7.8,4.7-15.9,7.5-23.7c1.3-3.7,4.6-6,8.7-5c4,0.9,7.3,3.6,6.4,8.2c-1.5,7-3.4,13.9-5.6,20.6c-5.7,17.3-11.5,34.6-17.6,51.8
	c-2.9,8.1-5.8,16.3-10.1,23.6c-6.3,10.9-17.1,17.9-26.3,22.2c-6.9,3.2-16.3,4.6-24.3,4.6c-11.8,0-22.6-3.6-33.1-9.6
	c-20.9-12-34.2-30.6-42.8-51.8c-5.5-13.6-7.5-27.9-6.6-42.3C0.8,96.7,2,86.8,4.8,77.6c5.4-17.8,15.3-33.3,28.7-46.5
	c7.6-7.4,24-21,48-27.1c12.1-3.1,22.6-3.9,29.4-4c8-0.1,21.5,0.6,31,3.6c2.2,0.7,11.2,3,22.1,8.5c15.4,7.9,28.4,18.8,38.6,32.9
	c0,0,16.4,22.6,20.3,50.5c1.1,8.1,1,15.7,1,15.7C223.8,113.3,223.7,117.2,222.9,122.7z"/>
<path d="M212.4,22.1"/>
</svg>
