<?xml version="1.0" encoding="UTF-8"?>
<svg width="662px" height="662px" viewBox="0 0 662 662" version="1.1" xmlns="http://www.w3.org/2000/svg" xmlns:xlink="http://www.w3.org/1999/xlink">
    <title>画板</title>
    <defs>
        <linearGradient x1="50%" y1="0%" x2="50%" y2="100%" id="linearGradient-1">
            <stop stop-color="#00474F" offset="0%"></stop>
            <stop stop-color="#000000" offset="100%"></stop>
        </linearGradient>
    </defs>
    <g id="画板" stroke="none" stroke-width="1" fill="none" fill-rule="evenodd">
        <circle id="椭圆形" fill="url(#linearGradient-1)" cx="331" cy="331" r="331"></circle>
        <g id="编组-10备份" transform="translate(151.000000, 178.000000)" fill="#FFFFFF" fill-rule="nonzero">
            <path d="M262.992673,306.600005 C280.375664,306.600005 295.211148,305.401178 307.499125,303.003524 C319.787102,300.60587 329.752351,296.784609 337.394874,291.539741 C345.037396,286.294873 350.581971,279.476544 354.028598,271.084755 C357.475226,262.692966 359.19854,252.353083 359.19854,240.065107 L359.19854,240.065107 L359.19854,213.091499 C359.19854,201.702643 358.299419,192.186953 356.501179,184.544431 C354.702938,176.901909 352.155431,170.682994 348.858657,165.887686 C345.561882,161.092378 341.590768,157.42097 336.945313,154.873463 C332.299859,152.325956 327.279771,150.452788 321.885049,149.253961 C331.475665,146.556601 339.417894,141.311733 345.711736,133.519357 C352.005578,125.726982 355.152498,112.839591 355.152498,94.8571863 L355.152498,94.8571863 L355.152498,69.6818193 C355.152498,56.7944291 353.354258,45.9300594 349.757777,37.0887103 C346.161296,28.2473612 340.541794,21.0543992 332.899272,15.5098243 C325.25675,9.96524943 315.291501,5.99413499 303.003524,3.596481 C290.715547,1.198827 275.880063,0 258.497072,0 L258.497072,0 L0,0 L0,306.600005 L262.992673,306.600005 Z M259.845752,126.326395 L68.3331389,126.326395 L68.3331389,55.7454555 L253.10235,55.7454555 C267.488274,55.7454555 277.453524,57.4687693 282.998098,60.9153969 C288.542673,64.3620245 291.314961,70.7307929 291.314961,80.0217022 L291.314961,80.0217022 L291.314961,99.3527875 C291.314961,109.542817 289.06716,116.585926 284.571559,120.482113 C280.075958,124.378301 271.834022,126.326395 259.845752,126.326395 L259.845752,126.326395 Z M259.396192,250.85455 L68.3331389,250.85455 L68.3331389,175.778009 L261.643993,175.778009 C274.231676,175.778009 282.998098,177.875956 287.94326,182.07185 C292.888421,186.267745 295.361002,194.659534 295.361002,207.247217 L295.361002,207.247217 L295.361002,226.128743 C295.361002,235.719359 292.588714,242.23798 287.04414,245.684608 C281.499565,249.131236 272.283582,250.85455 259.396192,250.85455 L259.396192,250.85455 Z" id="B"></path>
        </g>
    </g>
</svg>