<?xml version="1.0" encoding="utf-8"?>
<!-- Generator: Adobe Illustrator 25.0.1, SVG Export Plug-In . SVG Version: 6.00 Build 0)  -->
<svg version="1.1" id="图层_1" xmlns="http://www.w3.org/2000/svg" xmlns:xlink="http://www.w3.org/1999/xlink" x="0px" y="0px"
	 viewBox="0 0 40.8 23.7" style="enable-background:new 0 0 40.8 23.7;" xml:space="preserve">
<style type="text/css">
	.st0{filter:url(#Adobe_OpacityMaskFilter);}
	.st1{fill-rule:evenodd;clip-rule:evenodd;fill:#FFFFFF;}
	.st2{mask:url(#mask-4_1_);fill-rule:evenodd;clip-rule:evenodd;fill:url(#Fill-18_1_);}
</style>
<desc>Created with Sketch.</desc>
<g id="编组_1_" transform="translate(0.000000, 0.698700)">
	<g id="Clip-19">
	</g>
	<defs>
		<filter id="Adobe_OpacityMaskFilter" filterUnits="userSpaceOnUse" x="0" y="-0.7" width="40.8" height="23.7">
			<feColorMatrix  type="matrix" values="1 0 0 0 0  0 1 0 0 0  0 0 1 0 0  0 0 0 1 0"/>
		</filter>
	</defs>
	<mask maskUnits="userSpaceOnUse" x="0" y="-0.7" width="40.8" height="23.7" id="mask-4_1_">
		<g class="st0">
			<path id="path-3_1_" class="st1" d="M28.9-0.7c-4.4,0-8.3,2.4-10.3,6.1l0,0c0,0.1-0.1,0.2-0.1,0.3l0,0c-0.1,0.3-0.3,0.6-0.4,0.9
				l0,0c-0.3,0.7-0.5,1.6-0.6,2.4l0,0c-0.2,0.8-0.3,1.7-0.3,2.2l0,0c0,0,0,0,0,0l0,0c0,0,0,0,0,0l0,0v0c0,0,0,0,0,0.1l0,0
				c0,2.9-2.4,5.2-5.2,5.2l0,0c-2.9,0-5.2-2.3-5.2-5.2l0,0c0-2.9,2.3-5.2,5.2-5.2l0,0c1.5,0,2.8,0.6,3.8,1.6l0,0
				c0.5-2,1.5-3.9,3-5.6l0,0c0.1-0.1,0.2-0.2,0.3-0.3l0,0c-2-1.5-4.4-2.4-7.1-2.4l0,0C5.3-0.7,0,4.6,0,11.2l0,0
				C0,17.7,5.3,23,11.8,23l0,0h0c5.7,0,10.5-4.1,11.6-9.5l0,0c0.1-0.4,0.1-0.8,0.2-1.2l0,0h0c0,0,0,0,0,0l0,0c0-0.2,0-0.4,0-0.6l0,0
				c0-0.2,0-0.4,0.1-0.6l0,0c0.1-0.6,0.2-1.4,0.4-2l0,0c0.1-0.2,0.2-0.4,0.3-0.5l0,0c0,0,0-0.1,0.1-0.1l0,0c0.9-1.5,2.6-2.6,4.4-2.6
				l0,0c2.9,0,5.2,2.3,5.2,5.2l0,0c0,2.9-2.3,5.2-5.2,5.2l0,0c-1.5,0-2.8-0.6-3.8-1.6l0,0c-0.6,2.2-1.8,4.2-3.3,5.9l0,0
				c2,1.5,4.4,2.4,7.1,2.4l0,0c6.5,0,11.9-5.3,11.9-11.8l0,0C40.8,4.6,35.5-0.7,28.9-0.7z"/>
		</g>
	</mask>
	
		<linearGradient id="Fill-18_1_" gradientUnits="userSpaceOnUse" x1="-182.415" y1="414.4333" x2="-181.415" y2="414.4333" gradientTransform="matrix(40.785 0 0 -23.699 7439.7949 9832.8047)">
		<stop  offset="0" style="stop-color:#00C19C"/>
		<stop  offset="1" style="stop-color:#00DBB1"/>
	</linearGradient>
	<path id="Fill-18" class="st2" d="M28.9-0.7c-4.4,0-8.3,2.4-10.3,6.1l0,0c0,0.1-0.1,0.2-0.1,0.3l0,0c-0.1,0.3-0.3,0.6-0.4,0.9l0,0
		c-0.3,0.7-0.5,1.6-0.6,2.4l0,0c-0.2,0.8-0.3,1.7-0.3,2.2l0,0c0,0,0,0,0,0l0,0c0,0,0,0,0,0l0,0v0c0,0,0,0,0,0.1l0,0
		c0,2.9-2.4,5.2-5.2,5.2l0,0c-2.9,0-5.2-2.3-5.2-5.2l0,0c0-2.9,2.3-5.2,5.2-5.2l0,0c1.5,0,2.8,0.6,3.8,1.6l0,0c0.5-2,1.5-3.9,3-5.6
		l0,0c0.1-0.1,0.2-0.2,0.3-0.3l0,0c-2-1.5-4.4-2.4-7.1-2.4l0,0C5.3-0.7,0,4.6,0,11.2l0,0C0,17.7,5.3,23,11.8,23l0,0h0
		c5.7,0,10.5-4.1,11.6-9.5l0,0c0.1-0.4,0.1-0.8,0.2-1.2l0,0h0c0,0,0,0,0,0l0,0c0-0.2,0-0.4,0-0.6l0,0c0-0.2,0-0.4,0.1-0.6l0,0
		c0.1-0.6,0.2-1.4,0.4-2l0,0c0.1-0.2,0.2-0.4,0.3-0.5l0,0c0,0,0-0.1,0.1-0.1l0,0c0.9-1.5,2.6-2.6,4.4-2.6l0,0c2.9,0,5.2,2.3,5.2,5.2
		l0,0c0,2.9-2.3,5.2-5.2,5.2l0,0c-1.5,0-2.8-0.6-3.8-1.6l0,0c-0.6,2.2-1.8,4.2-3.3,5.9l0,0c2,1.5,4.4,2.4,7.1,2.4l0,0
		c6.5,0,11.9-5.3,11.9-11.8l0,0C40.8,4.6,35.5-0.7,28.9-0.7z"/>
</g>
</svg>
