<?xml version="1.0" encoding="utf-8"?>
<!-- Generator: Adobe Illustrator 25.0.1, SVG Export Plug-In . SVG Version: 6.00 Build 0)  -->
<svg version="1.1" id="图层_1" xmlns="http://www.w3.org/2000/svg" xmlns:xlink="http://www.w3.org/1999/xlink" x="0px" y="0px"
	 viewBox="0 0 13.9 22" style="enable-background:new 0 0 13.9 22;" xml:space="preserve">
<style type="text/css">
	.st0{fill-rule:evenodd;clip-rule:evenodd;fill:#D7E2F2;}
	.st1{fill-rule:evenodd;clip-rule:evenodd;fill:#357CE1;}
</style>
<desc>Created with Sketch.</desc>
<g id="组件">
	<g id="大客户权益导航复制" transform="translate(-64.000000, -13.000000)">
		<g id="编组-16复制">
			<g id="编组-9" transform="translate(16.000000, 8.000000)">
				<g id="火币全线品牌logo导出-RGB_火币Global-标准色" transform="translate(48.000000, 5.000000)">
					<path id="Fill-15" class="st0" d="M9.4,6.8c0-3.1-1.5-5.8-2.7-6.7c0,0-0.1,0-0.1,0.1l0,0c-0.1,6-3.2,7.7-4.9,9.9
						c-3.9,5.1-0.3,10.6,3.4,11.7c2.1,0.6-0.5-1-0.8-4.4C4,13.3,9.4,10.2,9.4,6.8"/>
					<path id="Fill-16" class="st1" d="M11.2,8.9C11.2,8.9,11.1,8.8,11.2,8.9c-0.1,0.8-0.9,2.4-1.9,3.9c-3.3,5.1-1.4,7.5-0.4,8.8
						c0.6,0.8,0,0,1.6-0.8c0.1-0.1,3-1.7,3.3-5.4C14.1,11.8,12,9.5,11.2,8.9"/>
				</g>
			</g>
		</g>
	</g>
</g>
</svg>
