<?xml version="1.0" encoding="UTF-8"?>
<svg width="14px" height="15px" viewBox="0 0 14 15" version="1.1" xmlns="http://www.w3.org/2000/svg" xmlns:xlink="http://www.w3.org/1999/xlink">
    <title>writing备份</title>
    <g id="phone" stroke="none" stroke-width="1" fill="none" fill-rule="evenodd">
        <g id="托管-reward-detail" transform="translate(-337.000000, -133.000000)" fill="#868686" fill-rule="nonzero">
            <g id="writing备份" transform="translate(337.000000, 133.000000)">
                <path d="M8.68307692,5.96961538 C8.68307692,5.66988642 8.44603951,5.42692308 8.15362101,5.42692308 L2.70022514,5.42692308 C2.40780664,5.42692308 2.17076923,5.66988642 2.17076923,5.96961538 C2.17076923,6.26934435 2.40780664,6.51230769 2.70022514,6.51230769 L8.15362101,6.51230769 C8.44603951,6.51230769 8.68307692,6.26934435 8.68307692,5.96961538 Z" id="路径"></path>
                <path d="M2.69666253,7.59769231 C2.40621166,7.59769231 2.17076923,7.84065565 2.17076923,8.14038462 C2.17076923,8.44011358 2.40621166,8.68307692 2.69666253,8.68307692 L5.98641439,8.68307692 C6.27686526,8.68307692 6.51230769,8.44011358 6.51230769,8.14038462 C6.51230769,7.84065565 6.27686526,7.59769231 5.98641439,7.59769231 L2.69666253,7.59769231 Z" id="路径"></path>
                <path d="M3.92794731,13.0076563 L2.13927377,13.0076563 C1.54947599,13.0076563 1.06963689,12.5131448 1.06963689,11.9053125 L1.06963689,2.2046875 C1.06963689,1.59685516 1.54947599,1.10234375 2.13927377,1.10234375 L8.71457238,1.10234375 C9.30437016,1.10234375 9.78420927,1.59685516 9.78420927,2.2046875 L9.78420927,5.59439453 C9.78420927,5.89880676 10.0236475,6.14556641 10.3190277,6.14556641 C10.6144079,6.14556641 10.8538462,5.89880676 10.8538462,5.59439453 L10.8538462,2.2046875 C10.8538462,0.989022812 9.89416794,0 8.71457238,0 L2.13927377,0 C0.959678214,0 0,0.989022812 0,2.2046875 L0,11.9053125 C0,13.1209772 0.959678214,14.11 2.13927377,14.11 L3.92794731,14.11 C4.22332754,14.11 4.46276576,13.8632404 4.46276576,13.5588281 C4.46276576,13.2544159 4.22332754,13.0076563 3.92794731,13.0076563 Z" id="路径"></path>
                <path d="M12.5523841,8.07389503 C11.9227737,7.43904402 10.8983448,7.43901689 10.2691382,8.07346083 L7.31397418,11.0466282 C7.25121231,11.1097767 7.20492138,11.1875524 7.17913842,11.2730893 L6.53556004,13.4094766 C6.47850379,13.5988953 6.5282127,13.8045692 6.66530919,13.9462533 C6.76801044,14.0523874 6.90752913,14.11 7.05062728,14.11 C7.09850609,14.11 7.14684243,14.1035413 7.19429062,14.0902712 L9.36686891,13.483453 C9.45627498,13.4584867 9.53776853,13.4106435 9.60343705,13.344537 L12.552411,10.3766071 C13.1820213,9.74175614 13.1820213,8.70880031 12.5523841,8.07389503 Z M8.94309167,12.4754635 L7.85008765,12.7807587 L8.16995253,11.7189016 L10.163934,9.71277346 L10.925312,10.4804889 L8.94309167,12.4754635 Z M11.7915712,9.60872889 L11.6872821,9.71366899 L10.9260387,8.94608924 L11.0299779,8.84150192 C11.239848,8.62988492 11.5813243,8.62988492 11.7911944,8.84150192 C12.0010646,9.05311892 12.0010646,9.39743753 11.7915712,9.60872889 Z" id="形状"></path>
                <path d="M8.15362101,3.25615385 L2.70022514,3.25615385 C2.40780664,3.25615385 2.17076923,3.49911719 2.17076923,3.79884615 C2.17076923,4.09857512 2.40780664,4.34153846 2.70022514,4.34153846 L8.15362101,4.34153846 C8.44603951,4.34153846 8.68307692,4.09857512 8.68307692,3.79884615 C8.68307692,3.49911719 8.44603951,3.25615385 8.15362101,3.25615385 Z" id="路径"></path>
            </g>
        </g>
    </g>
</svg>