<?xml version="1.0" encoding="UTF-8"?>
<svg width="29px" height="29px" viewBox="0 0 29 29" version="1.1" xmlns="http://www.w3.org/2000/svg" xmlns:xlink="http://www.w3.org/1999/xlink">
    <title>首页</title>
    <g id="web" stroke="none" stroke-width="1" fill="none" fill-rule="evenodd">
        <g id="首页" transform="translate(-244.000000, -973.000000)" fill="#2DE0D8" fill-rule="nonzero">
            <g id="编组-4" transform="translate(244.000000, 973.000000)">
                <path d="M26.3197637,6.13013324 C26.319278,6.1207849 26.318246,6.11143655 26.3166675,6.10214891 C26.2804247,6.05036877 26.2358649,6.00581237 26.1985294,5.95506419 C25.9277709,5.5862294 25.6411068,5.23123501 25.3385979,4.89002034 C25.2557312,4.79677968 25.1728038,4.70457098 25.087873,4.61339424 C24.7763793,4.27982821 24.4496478,3.96174158 24.1077392,3.65925577 C24.044542,3.6032871 23.9854729,3.5453152 23.9222757,3.49037849 C23.079646,2.76855252 22.1570029,2.14561265 21.1724981,1.63388169 C21.1330985,1.61318178 21.0916955,1.59557775 21.0512639,1.57481713 C20.6128293,1.35203509 20.1632852,1.15177406 19.7043312,0.974944608 C19.6007023,0.937672626 19.5064225,0.902403861 19.4080145,0.871323641 C18.9998126,0.724238929 18.5853578,0.595425987 18.1647107,0.484884815 C18.0403804,0.451740674 17.91605,0.417564573 17.7896555,0.388548275 C17.3752007,0.292211734 16.9608066,0.218639026 16.5370027,0.158542508 C16.4085442,0.139906517 16.2821497,0.115018059 16.1525984,0.0994779494 C15.0611258,-0.0331593165 13.957633,-0.0331593165 12.8660997,0.0994779494 C12.7366091,0.115018059 12.6102147,0.139906517 12.4816954,0.158542508 C12.0579522,0.218639026 11.6393693,0.292211734 11.2290426,0.388548275 C11.1026481,0.417564573 10.9783178,0.451740674 10.8539874,0.484884815 C10.4305477,0.595365284 10.0161536,0.724178226 9.6106836,0.871323641 C9.50705471,0.906531702 9.41277489,0.941800467 9.31436691,0.974944608 C8.85547368,1.15177406 8.40586881,1.35197438 7.96743424,1.57481713 C7.92700259,1.59551704 7.8855996,1.61312107 7.84619998,1.63388169 C6.85841698,2.14506632 5.93267775,2.76794549 5.08707334,3.49037849 C5.02387611,3.5452545 4.96480704,3.6032871 4.90160981,3.65925577 C4.55624091,3.96313777 4.22950942,4.28122439 3.92147605,4.61339424 C3.83654529,4.70457098 3.75361789,4.79677968 3.67075121,4.89002034 C3.36751379,5.23050657 3.08084971,5.58550096 2.81081967,5.95500349 C2.77354484,6.00575166 2.72898502,6.05030807 2.69268152,6.1020882 C2.68794628,6.11113303 2.68375742,6.12048138 2.68023634,6.13007254 C-0.893412114,11.1379337 -0.893412114,17.8620663 2.68023634,22.8698668 C2.68375742,22.8794579 2.68788558,22.8888063 2.69268152,22.8978511 C2.72892431,22.9496312 2.77348413,22.9941876 2.81081967,23.0449358 C3.08091041,23.4137706 3.36751379,23.768765 3.67075121,24.1099797 C3.75361789,24.2032203 3.83654529,24.295429 3.92147605,24.3866058 C4.23369828,24.7201718 4.56036906,25.0382584 4.90160981,25.3407442 C4.96480704,25.3967129 5.02387611,25.4546848 5.08707334,25.5096215 C5.92970305,26.2314475 6.85234616,26.8543873 7.83685092,27.3661183 C7.87625054,27.3868182 7.91765352,27.4044223 7.95808518,27.4251829 C8.39651975,27.6479649 8.84606391,27.8482259 9.30501785,28.0250554 C9.40864673,28.0623274 9.50292655,28.0975961 9.60133453,28.1286764 C10.0095364,28.2757611 10.4239912,28.404574 10.8446383,28.5151152 C10.9689687,28.5482593 11.0932991,28.5824354 11.2196935,28.6114517 C11.6341484,28.7077883 12.0485425,28.781361 12.4723464,28.8414575 C12.6008049,28.8600935 12.7271994,28.8849819 12.8567506,28.9005221 C13.9482232,29.0331593 15.0517161,29.0331593 16.1432494,28.9005221 C16.2727399,28.8849819 16.3991344,28.8600935 16.5276536,28.8414575 C16.9513968,28.781361 17.3699798,28.7077883 17.7803065,28.6114517 C17.9067009,28.5824354 18.0310313,28.5482593 18.1553617,28.5151152 C18.5794691,28.4046347 18.9939239,28.2758218 19.3986655,28.1286764 C19.5022944,28.0934683 19.5965742,28.0581995 19.6949822,28.0250554 C20.1538754,27.8482259 20.6034803,27.6480256 21.0419148,27.4251829 C21.0823465,27.404483 21.1237495,27.3868789 21.1631491,27.3661183 C22.1476538,26.8543266 23.0702969,26.2314475 23.9129267,25.5096215 C23.9761239,25.4546848 24.035193,25.3967129 24.0983902,25.3407442 C24.4437591,25.03753 24.7704906,24.7195041 25.078524,24.3866058 C25.1634547,24.295429 25.2463821,24.2032203 25.3292488,24.1099797 C25.6324862,23.768765 25.9191503,23.4137706 26.1891803,23.0449358 C26.2264552,22.9941876 26.271015,22.9496312 26.3073185,22.8978511 C26.3120537,22.8888063 26.3162426,22.8794579 26.3197637,22.8698668 C29.8934121,17.8621271 29.8934121,11.1379944 26.3197637,6.13013324 Z M25.137593,8.09031171 C26.1284721,9.72208395 26.7268121,11.5616445 26.8854426,13.4640938 L20.6793048,13.4640938 C20.6032981,12.2296264 20.4090319,11.0053571 20.0991166,9.80804019 C21.8521871,9.47975536 23.5490418,8.90125049 25.137593,8.09031171 Z M17.1410492,2.35388655 C17.1990862,2.36736273 17.2549985,2.38599873 17.3130355,2.39947491 C17.6839626,2.48652381 18.0517935,2.58595623 18.4113074,2.71027711 C18.4662483,2.7289131 18.5200965,2.75070568 18.5740054,2.77037363 C18.9304232,2.89469451 19.2816201,3.03249158 19.6256534,3.18479679 C19.6857545,3.21278113 19.7448236,3.24386135 19.8049247,3.27184569 C20.1343881,3.42864297 20.4562629,3.598188 20.7705492,3.78054148 L20.9777463,3.90589432 C21.276127,4.08824779 21.5662515,4.28334902 21.8480589,4.49125869 C21.9206052,4.54407078 21.9930908,4.59487966 22.064605,4.65285155 C22.340888,4.86003278 22.6054543,5.08208638 22.8582432,5.31901235 C22.9245366,5.37910887 22.9929547,5.43817343 23.058216,5.50033387 C23.3234501,5.75207151 23.576239,6.0183173 23.8207716,6.29391143 C23.8518542,6.33015146 23.8850009,6.3632956 23.9160835,6.3975324 C22.5131779,7.06606064 21.0269806,7.54343339 19.4971949,7.8168422 C18.7884874,5.86874374 17.8523064,4.01109357 16.7080784,2.28249917 C16.8519568,2.30835888 16.9991135,2.32286703 17.1410492,2.35388655 Z M10.3981903,13.4640331 C10.4799035,12.3430813 10.6707701,11.2327526 10.9680581,10.1488299 C12.1419724,10.288266 13.323111,10.3574074 14.5052816,10.3560112 C15.688545,10.3556469 16.8707763,10.2847452 18.0456013,10.1436094 C18.3423429,11.2292925 18.5321774,12.3413816 18.6123122,13.4640331 L10.3981903,13.4640331 Z M18.6123122,15.5360883 C18.530599,16.6570401 18.3397325,17.7673688 18.0424444,18.8512915 C16.8685301,18.7118554 15.6873915,18.6427141 14.5052209,18.6441102 C13.3220182,18.6427748 12.1398476,18.7119161 10.9649012,18.8512915 C10.6684631,17.7673081 10.4786893,16.6569794 10.3981296,15.5360883 L18.6123122,15.5360883 L18.6123122,15.5360883 Z M14.5052209,2.74348196 C15.6842954,4.41446869 16.6540481,6.22373812 17.3928061,8.13074028 C16.4336773,8.23260084 15.4698134,8.28377394 14.5052209,8.28407746 C13.5417212,8.28292409 12.5788892,8.23144748 11.6207318,8.12970832 C12.3604005,6.22398094 13.3289997,4.41531854 14.5052209,2.74348196 Z M5.19082364,6.29281877 C5.4343242,6.01722463 5.68814516,5.75097884 5.95337925,5.49924121 C6.01864056,5.43708077 6.08705869,5.37801621 6.15335203,5.31791969 C6.40893352,5.08518226 6.67349983,4.86312866 6.94699023,4.65175889 C7.01850449,4.59682217 7.09099007,4.54813792 7.16353636,4.49016602 C7.44534379,4.28298479 7.73546824,4.08782287 8.033849,3.90480165 L8.24104606,3.77944881 C8.55533238,3.59575986 8.87720721,3.42615413 9.20667057,3.27075303 C9.26677168,3.24276869 9.32584076,3.21168847 9.38594187,3.18370413 C9.72991449,3.02830303 10.0811721,2.89050596 10.4375899,2.76928097 C10.4914381,2.74961301 10.5412188,2.72782044 10.6002271,2.70918445 C10.959741,2.58899141 11.3255079,2.48955899 11.698499,2.39838225 C11.7565361,2.38490606 11.8124483,2.36627007 11.8715174,2.35382584 C12.0134531,2.32274562 12.1606098,2.30823747 12.3046096,2.28231705 C11.159896,4.01121498 10.2234114,5.86922937 9.5144004,7.81769205 C7.98461466,7.54428324 6.49835669,7.06691049 5.09551178,6.39838225 C5.12659438,6.36220293 5.15974105,6.32905879 5.19082364,6.29281877 Z M3.87290949,8.09031171 C5.46109652,8.90118979 7.15758695,9.47969466 8.91035389,9.80804019 C8.60080281,11.0054178 8.40684014,12.2296871 8.33119773,13.4640938 L2.12505992,13.4640938 C2.28375114,11.5616445 2.88209108,9.72208395 3.87290949,8.09031171 Z M3.87290949,20.9098704 C2.88203038,19.2780982 2.28369043,17.4385377 2.12505992,15.5360883 L8.33119773,15.5360883 C8.40720439,16.7705557 8.6014706,17.994825 8.91138593,19.1921419 C7.15831545,19.520366 5.46146076,20.0988709 3.87290949,20.9098704 Z M11.8694533,26.6462349 C11.8114163,26.6327587 11.755504,26.6141227 11.697467,26.6006465 C11.3265399,26.5135976 10.958709,26.4141652 10.5991951,26.2898443 C10.5442542,26.2712083 10.490406,26.2494157 10.4364971,26.2297478 C10.0800793,26.1054269 9.72888245,25.9676298 9.38484912,25.8153246 C9.32474801,25.7873403 9.26567894,25.7562601 9.20557783,25.7282757 C8.87611447,25.5714784 8.55423963,25.4019334 8.23995332,25.2195799 L8.03275626,25.0942271 C7.73437549,24.9118736 7.44425104,24.7167724 7.16244361,24.5088627 C7.08989732,24.4560506 7.01741174,24.4052418 6.94589749,24.3472699 C6.6696145,24.1400886 6.4050482,23.918035 6.15225929,23.6811091 C6.08596594,23.6210125 6.01754781,23.561948 5.9522865,23.4997875 C5.68705241,23.2480499 5.43426349,22.9818041 5.1897309,22.70621 C5.1586483,22.66997 5.12550163,22.6368258 5.09441903,22.602589 C6.49732465,21.9340608 7.98352191,21.456688 9.51330765,21.1832792 C10.2220151,23.1313777 11.1581961,24.9890278 12.3024241,26.7176222 C12.158485,26.6918232 12.0113891,26.6773151 11.8694533,26.6462349 Z M14.5052209,26.2567002 C13.3261464,24.5857134 12.3563937,22.776444 11.6176357,20.8694418 C13.5364396,20.6629283 15.4718775,20.6629283 17.3906813,20.8694418 L17.3896493,20.8704738 C16.6501021,22.7761405 15.6815028,24.5848029 14.5052209,26.2567002 Z M23.8196789,22.7073026 C23.5761783,22.9828968 23.3223574,23.2491426 23.0571233,23.5008802 C22.991862,23.5630406 22.9234438,23.6221052 22.8571505,23.6822017 C22.601569,23.9156676 22.3370027,24.1377212 22.0635123,24.3483625 C21.991998,24.4032385 21.9195125,24.4571433 21.8469662,24.5099554 C21.5651587,24.7171366 21.2750343,24.9122985 20.9766535,25.0953198 L20.7694565,25.2206726 C20.4558379,25.4036938 20.1339631,25.5732388 19.8038319,25.7293684 C19.7437308,25.7573527 19.6846618,25.7884329 19.6245607,25.8164173 C19.280588,25.9718184 18.9293304,26.1096154 18.5729126,26.2308404 C18.5190645,26.2505084 18.4692837,26.272301 18.4102754,26.290937 C18.0507615,26.41113 17.6849946,26.5105624 17.3120035,26.6017392 C17.2539664,26.6152153 17.1980542,26.6338513 17.1389851,26.6462956 C16.9970494,26.6773758 16.8498927,26.6918839 16.7058929,26.7178044 C17.8501209,24.9892099 18.7863626,23.1315598 19.4950094,21.1834613 C21.0247951,21.4568701 22.5110531,21.9342429 23.913898,22.6027711 C23.8839081,22.6379185 23.8507615,22.6710626 23.8196789,22.7073026 Z M25.137593,20.9098704 C23.549406,20.0989923 21.8529156,19.5204874 20.1001486,19.1921419 C20.4096997,17.9947643 20.6036624,16.770495 20.6793048,15.5360883 L26.8854426,15.5360883 C26.7267514,17.4384769 26.1284114,19.2780375 25.137593,20.9098704 Z" id="形状"></path>
            </g>
        </g>
    </g>
</svg>