<?xml version="1.0" encoding="UTF-8"?>
<svg width="19px" height="18px" viewBox="0 0 19 18" version="1.1" xmlns="http://www.w3.org/2000/svg" xmlns:xlink="http://www.w3.org/1999/xlink">
    <title>wallet-filled-money-tool</title>
    <g id="phone" stroke="none" stroke-width="1" fill="none" fill-rule="evenodd">
        <g id="首页点击功能块" transform="translate(-156.000000, -69.000000)" fill="#000000" fill-rule="nonzero">
            <g id="wallet-filled-money-tool" transform="translate(156.000000, 69.000000)">
                <path d="M4.22228917,3.31858538 L11.4251371,1.35251224 L11.0436905,0.58150316 C10.7941271,0.0803472615 10.1854357,-0.126607806 9.68427978,0.122955658 L3.23620914,3.31858538 L4.22228917,3.31858538 Z" id="路径"></path>
                <path d="M13.6610634,1.40932343 C13.571809,1.40932343 13.482514,1.42149726 13.3932392,1.44584491 L11.7010975,1.90845036 L6.53328742,3.31858538 L12.3990433,3.31858538 L14.9555471,3.31858538 L14.6390276,2.15801382 C14.5172893,1.70555323 14.1074371,1.40932343 13.6610634,1.40932343 Z" id="路径"></path>
                <path d="M16.0126411,4.02872531 L15.7813384,4.02872531 L15.4668478,4.02872531 L15.1523573,4.02872531 L12.7520843,4.02872531 L3.93214628,4.02872531 L2.77563267,4.02872531 L1.80172647,4.02872531 L1.62114803,4.02872531 L1.0165146,4.02872531 C0.695937139,4.02872531 0.409852193,4.17684022 0.223186838,4.41017191 C0.137970045,4.51770739 0.073042965,4.64147463 0.0365214825,4.77741571 C0.0142027988,4.8626325 0,4.95190723 0,5.04321094 L0,5.16494921 L0,6.32146283 L0,16.3466098 C0,16.9066261 0.45448956,17.3610954 1.01448563,17.3610954 L16.0106121,17.3610954 C16.5706285,17.3610954 17.0251045,16.9066261 17.0251045,16.3466098 L17.0251045,13.5161949 L11.0051401,13.5161949 C10.0535525,13.5161949 9.2805145,12.7431568 9.2805145,11.7915693 L9.2805145,10.8623005 L9.2805145,10.5478099 L9.2805145,10.2333194 L9.2805145,9.53535329 C9.2805145,9.0686899 9.46715956,8.6446552 9.76949657,8.3342226 C10.0373208,8.05826222 10.3964487,7.87159686 10.798185,7.82493052 C10.865141,7.81683493 10.9341261,7.8127567 11.0031111,7.8127567 L16.1810457,7.8127567 L16.4955363,7.8127567 L16.8100268,7.8127567 L17.0251045,7.8127567 L17.0251045,5.04321094 C17.0271267,4.48321487 16.5726372,4.02872531 16.0126411,4.02872531 Z" id="路径"></path>
                <path d="M17.7372667,8.78260495 C17.6358181,8.68927228 17.5161088,8.61825828 17.3821967,8.57159194 C17.2786989,8.53711972 17.1691547,8.51683001 17.0535034,8.51683001 L17.0271267,8.51683001 L17.006837,8.51683001 L16.6923465,8.51683001 L15.5581515,8.51683001 L11.0051401,8.51683001 C10.4451237,8.51683001 9.99065443,8.97129928 9.99065443,9.53131563 L9.99065443,10.0365092 L9.99065443,10.3509997 L9.99065443,10.6654903 L9.99065443,11.7895403 C9.99065443,12.3495364 10.4451237,12.804026 11.0051401,12.804026 L17.0271267,12.804026 L17.0535034,12.804026 C17.1691547,12.804026 17.2787192,12.7837363 17.3821967,12.7492437 C17.5161088,12.7046064 17.6358181,12.6315634 17.7372667,12.5382307 C17.9401638,12.3535944 18.067989,12.0857701 18.067989,11.7895606 L18.067989,9.53131563 C18.067989,9.23506554 17.9401638,8.96722105 17.7372667,8.78260495 Z M13.123386,10.8623005 C13.123386,11.1422985 12.8961413,11.3695433 12.6161432,11.3695433 L12.279334,11.3695433 C11.999336,11.3695433 11.7720912,11.1422985 11.7720912,10.8623005 L11.7720912,10.5254913 C11.7720912,10.3631736 11.8471631,10.2190963 11.9668724,10.1277926 C12.0541182,10.0608366 12.161674,10.0182484 12.279334,10.0182484 L12.3645508,10.0182484 L12.6161432,10.0182484 C12.8961413,10.0182484 13.123386,10.2454729 13.123386,10.5254913 L13.123386,10.8623005 L13.123386,10.8623005 Z" id="形状"></path>
            </g>
        </g>
    </g>
</svg>