<?xml version="1.0" encoding="UTF-8"?>
<svg width="60px" height="49px" viewBox="0 0 60 49" version="1.1" xmlns="http://www.w3.org/2000/svg" xmlns:xlink="http://www.w3.org/1999/xlink">
    <title>矩形备份 14</title>
    <g id="web" stroke="none" stroke-width="1" fill="none" fill-rule="evenodd">
        <g id="首页" transform="translate(-56.000000, -346.000000)" fill="#000000" fill-rule="nonzero">
            <g id="编组-12" transform="translate(56.000000, 346.000000)">
                <path d="M38.4335773,17.9292984 C38.3960029,17.6594376 38.2018381,17.4374568 37.9393645,17.3644968 L29.5270765,15.0250344 C29.4071485,14.9916552 29.2804717,14.9916552 29.1604525,15.0250344 L20.7481645,17.3644968 C20.4856909,17.4374568 20.2915261,17.6593464 20.2539517,17.9292984 C20.2051597,18.2801448 19.0920637,26.56986 21.9470797,30.6937416 C24.7987213,34.8126984 29.0055037,35.8682472 29.1831613,35.9112024 C29.2359661,35.9239704 29.2897741,35.9302632 29.3437645,35.9302632 C29.3977549,35.9302632 29.4515629,35.9238792 29.5043677,35.9112024 C29.6821165,35.8682472 33.8888989,34.8126984 36.7404493,30.6937416 C39.5954653,26.5699512 38.4823693,18.280236 38.4335773,17.9292984 Z M34.7686141,22.7689176 L29.0305837,28.506948 C28.8970669,28.6404648 28.7219629,28.7073144 28.5469501,28.7073144 C28.3719373,28.7073144 28.1968333,28.640556 28.0633165,28.506948 L24.5155453,24.9591768 C24.3872269,24.8309496 24.3151789,24.65694 24.3151789,24.4755432 C24.3151789,24.2941464 24.3873181,24.1201368 24.5155453,23.9919096 L25.2199741,23.2874808 C25.4870989,23.0204472 25.9202077,23.020356 26.1872413,23.2874808 L28.5469501,25.6471896 L33.0969181,21.0971304 C33.2251453,20.968812 33.3991549,20.896764 33.5805517,20.896764 C33.7619485,20.896764 33.9359581,20.968812 34.0641853,21.0971304 L34.7686141,21.8015592 C35.0357389,22.068684 35.0357389,22.5017928 34.7686141,22.7689176 Z" id="形状"></path>
            </g>
        </g>
    </g>
</svg>