<?xml version="1.0" encoding="UTF-8"?>
<svg width="60px" height="49px" viewBox="0 0 60 49" version="1.1" xmlns="http://www.w3.org/2000/svg" xmlns:xlink="http://www.w3.org/1999/xlink">
    <title>矩形备份 13</title>
    <g id="web" stroke="none" stroke-width="1" fill="none" fill-rule="evenodd">
        <g id="画板" transform="translate(-81.000000, -281.000000)" fill="#FFFFFF" fill-rule="nonzero">
            <g id="编组-11备份" transform="translate(81.000000, 281.000000)">
                <g id="编组-10" transform="translate(21.016672, 12.000000)">
                    <path d="M11.4924216,23.0582388 C11.7874559,22.6801462 11.7910606,22.1495049 11.4924216,21.7668064 C11.4248836,21.6801935 11.6272973,21.8890656 9.27122795,19.5329963 C8.86064306,19.1224114 8.19492581,19.1224114 7.78434093,19.5329963 C7.37380611,19.9435812 7.37380611,20.6092984 7.78434093,21.0198333 L8.12568561,21.3611279 L6.39167666,21.3611279 C5.81102022,21.3611279 5.340307,21.8318411 5.340307,22.4124975 C5.340307,22.993154 5.81102022,23.4638672 6.39167666,23.4638672 L8.12568561,23.4638672 L7.78434093,23.8051618 C7.1200255,24.4695273 7.59970039,25.6000501 8.52780947,25.5999499 C8.79685997,25.5999499 9.06596054,25.4972662 9.27127801,25.2919988 C11.6463221,22.9170048 11.4292393,23.1392944 11.4924216,23.0582388 L11.4924216,23.0582388 Z" id="路径"></path>
                    <path d="M16.0041992,2.13162821e-14 L1.05136966,2.13162821e-14 C0.470713214,2.13162821e-14 -3.55271368e-15,0.470713214 -3.55271368e-15,1.05136966 L-3.55271368e-15,22.4125476 C-3.55271368e-15,22.993204 0.470713214,23.4639173 1.05136966,23.4639173 L2.11941103,23.4639173 C2.70006747,23.4639173 3.17078068,22.993204 3.17078068,22.4125476 C3.17078068,19.4586995 5.57391133,17.0555689 8.52775941,17.0555689 C11.4816075,17.0555689 13.8847381,19.4586995 13.8847381,22.4125476 C13.8847381,22.993204 14.3554513,23.4639173 14.9361078,23.4639173 L16.0041992,23.4639173 C16.5848557,23.4639173 17.0555689,22.993204 17.0555689,22.4125476 L17.0555689,1.05136966 C17.0555689,0.470713214 16.5848056,2.13162821e-14 16.0041992,2.13162821e-14 L16.0041992,2.13162821e-14 Z M6.39167666,4.27221556 L10.6639423,4.27221556 C11.2445987,4.27221556 11.7153119,4.74292878 11.7153119,5.32358522 C11.7153119,5.90424166 11.2445987,6.37495487 10.6639423,6.37495487 L6.39167666,6.37495487 C5.81102022,6.37495487 5.340307,5.90424166 5.340307,5.32358522 C5.340307,4.74292878 5.81102022,4.27221556 6.39167666,4.27221556 Z M11.7319837,10.6472205 L5.32363528,10.6472205 C4.74297884,10.6472205 4.27226563,10.1765073 4.27226563,9.59585084 C4.27226563,9.0151944 4.74297884,8.54448119 5.32363528,8.54448119 L11.7319837,8.54448119 C12.3126401,8.54448119 12.7833533,9.0151944 12.7833533,9.59585084 C12.7833533,10.1765073 12.31259,10.6472205 11.7319837,10.6472205 Z" id="形状"></path>
                </g>
            </g>
        </g>
    </g>
</svg>