<?xml version="1.0" encoding="UTF-8"?>
<svg width="60px" height="49px" viewBox="0 0 60 49" version="1.1" xmlns="http://www.w3.org/2000/svg" xmlns:xlink="http://www.w3.org/1999/xlink">
    <title>矩形备份 15</title>
    <g id="web" stroke="none" stroke-width="1" fill="none" fill-rule="evenodd">
        <g id="首页" transform="translate(-56.000000, -411.000000)" fill="#000000" fill-rule="nonzero">
            <g id="编组-23" transform="translate(56.000000, 411.000000)">
                <g id="编组-22" transform="translate(20.000450, 14.000000)">
                    <path d="M11.8573,10.17875 L13.3602,8.7491 L11.2663,8.45175 C11.02395,8.4173 10.813,8.26645 10.70245,8.04745 L9.74955,6.1623 L8.7967,8.04745 C8.6861,8.26645 8.47515,8.4173 8.23275,8.45175 L6.13885,8.7491 L7.64175,10.17875 C7.8234,10.35235 7.9069,10.605 7.86365,10.8518 L7.50475,12.89295 L9.40675,11.9167 C9.6221,11.80685 9.87695,11.80685 10.09225,11.9167 L11.99425,12.89295 L11.63535,10.8518 C11.5922,10.60495 11.6757,10.35235 11.8573,10.17875 Z" id="路径"></path>
                    <path d="M9.74955,0 C4.3738,0 0,4.3738 0,9.74955 C0,15.1253 4.3738,19.4991 9.74955,19.4991 C15.1253,19.4991 19.4991,15.1253 19.4991,9.74955 C19.4991,4.3738 15.1253,0 9.74955,0 Z M15.5164,8.7674 L13.183,10.988 L13.733,14.1197 C13.83935,14.7276 13.20135,15.2019 12.65125,14.91655 L9.74955,13.4269 L6.84785,14.9166 C6.29935,15.1983 5.659,14.73215 5.7661,14.11975 L6.31615,10.98805 L3.98275,8.76745 C3.5292,8.33465 3.77615,7.5688 4.39435,7.48135 L7.63445,7.0214 L9.0802,4.16145 C9.3351,3.6561 10.16415,3.6561 10.419,4.16145 L11.86475,7.0214 L15.10485,7.48135 C15.72295,7.56875 15.9699,8.33465 15.5164,8.7674 Z" id="形状"></path>
                    <path d="M9.74955,20.99905 C7.8537,20.99905 6.06845,20.52315 4.4998,19.69155 L4.4998,24.84885 C4.4998,25.4489 5.1715,25.80445 5.66575,25.4728 L9.74955,22.7506 L13.83335,25.4729 C14.3299,25.80395 14.9993,25.44815 14.9993,24.84895 L14.9993,19.69155 C13.4306,20.5232 11.6454,20.99905 9.74955,20.99905 Z" id="路径"></path>
                </g>
            </g>
        </g>
    </g>
</svg>