<?xml version="1.0" encoding="UTF-8"?>
<svg width="23px" height="22px" viewBox="0 0 23 22" version="1.1" xmlns="http://www.w3.org/2000/svg" xmlns:xlink="http://www.w3.org/1999/xlink">
    <title>wallet-filled-money-tool</title>
    <g id="phone" stroke="none" stroke-width="1" fill="none" fill-rule="evenodd">
        <g id="首页" transform="translate(-118.000000, -145.000000)" fill="#2DE0D8" fill-rule="nonzero">
            <g id="wallet-filled-money-tool" transform="translate(118.000000, 145.000000)">
                <path d="M5.23800706,4.11690742 L14.1735789,1.67787386 L13.7003712,0.721390112 C13.3907725,0.099675675 12.6356538,-0.1570647 12.0139393,0.152533987 L4.01471469,4.11690742 L5.23800706,4.11690742 Z" id="路径"></path>
                <path d="M16.9473818,1.74835161 C16.8366562,1.74835161 16.7258803,1.76345399 16.6151296,1.79365874 L14.5159246,2.36754899 L8.10494125,4.11690742 L15.3817689,4.11690742 L18.5532677,4.11690742 L18.1606059,2.67714768 C18.0095822,2.11584274 17.5011356,1.74835161 16.9473818,1.74835161 Z" id="路径"></path>
                <path d="M19.8646573,4.9978793 L19.5777121,4.9978793 L19.1875674,4.9978793 L18.7974228,4.9978793 L15.8197378,4.9978793 L4.87806713,4.9978793 L3.4433415,4.9978793 L2.2351515,4.9978793 L2.01113294,4.9978793 L1.26104831,4.9978793 C0.863352438,4.9978793 0.508446625,5.18162486 0.276876875,5.47108705 C0.17116025,5.60449136 0.09061425,5.75803218 0.045307125,5.92667536 C0.0176194375,6.03239199 0,6.14314274 0,6.25641055 L0,6.4074343 L0,7.84215993 L0,20.2789657 C0,20.9737002 0.563822,21.537497 1.25853125,21.537497 L19.8621402,21.537497 C20.5568746,21.537497 21.1206798,20.9737002 21.1206798,20.2789657 L21.1206798,16.7676636 L13.652547,16.7676636 C12.4720447,16.7676636 11.5130439,15.8086627 11.5130439,14.6281604 L11.5130439,13.4753458 L11.5130439,13.0852011 L11.5130439,12.6950564 L11.5130439,11.8291869 C11.5130439,11.2502626 11.7445885,10.7242217 12.1196559,10.3391111 C12.4519082,9.99676543 12.8974282,9.76519568 13.3958066,9.70730324 C13.4788697,9.69726016 13.5644498,9.69220086 13.6500299,9.69220086 L20.0735734,9.69220086 L20.4637181,9.69220086 L20.8538628,9.69220086 L21.1206798,9.69220086 L21.1206798,6.25641055 C21.1231885,5.5617013 20.5593665,4.9978793 19.8646573,4.9978793 Z" id="路径"></path>
                <path d="M22.0041604,10.8953567 C21.8783072,10.7795719 21.7298006,10.6914747 21.5636744,10.6335822 C21.4352791,10.5908173 21.2993829,10.5656467 21.1559103,10.5656467 L21.1231885,10.5656467 L21.0980179,10.5656467 L20.7078732,10.5656467 L19.3008352,10.5656467 L13.652547,10.5656467 C12.9578126,10.5656467 12.3940157,11.1294436 12.3940157,11.824178 L12.3940157,12.4509014 L12.3940157,12.8410461 L12.3940157,13.2311907 L12.3940157,14.6256434 C12.3940157,15.3203526 12.9578126,15.8841746 13.652547,15.8841746 L21.1231885,15.8841746 L21.1559103,15.8841746 C21.2993829,15.8841746 21.4353043,15.859004 21.5636744,15.8162139 C21.7298006,15.7608385 21.8783072,15.6702243 22.0041604,15.5544394 C22.2558666,15.3253867 22.4144416,14.9931345 22.4144416,14.6256685 L22.4144416,11.824178 C22.4144416,11.4566617 22.2558666,11.1243843 22.0041604,10.8953567 Z M16.2803603,13.4753458 C16.2803603,13.8227004 15.9984492,14.1046114 15.6510946,14.1046114 L15.2332622,14.1046114 C14.8859076,14.1046114 14.6039966,13.8227004 14.6039966,13.4753458 L14.6039966,13.0575134 C14.6039966,12.8561484 14.6971279,12.6774118 14.8456346,12.564144 C14.9538683,12.4810809 15.0872978,12.4282478 15.2332622,12.4282478 L15.3389789,12.4282478 L15.6510946,12.4282478 C15.9984492,12.4282478 16.2803603,12.7101336 16.2803603,13.0575134 L16.2803603,13.4753458 L16.2803603,13.4753458 Z" id="形状"></path>
            </g>
        </g>
    </g>
</svg>