<?xml version="1.0" encoding="UTF-8"?>
<svg width="508px" height="144px" viewBox="0 0 508 144" version="1.1" xmlns="http://www.w3.org/2000/svg" xmlns:xlink="http://www.w3.org/1999/xlink">
    <title>编组 2</title>
    <g id="web" stroke="none" stroke-width="1" fill="none" fill-rule="evenodd">
        <g id="画板" transform="translate(-204.000000, -186.000000)">
            <g id="编组-2" transform="translate(204.000000, 186.000000)">
                <g id="编组">
                    <polygon id="路径" fill="#FF23C1" fill-rule="nonzero" points="108.954014 90.3164832 25.7625254 43.7718566 25.7625254 143.360544 -9.23705556e-14 128.947228 -9.23705556e-14 5.68434189e-14 108.954014 60.9580711"></polygon>
                    <polygon id="路径备份-2" fill="#2DE0D8" fill-rule="nonzero" transform="translate(163.522993, 71.680272) scale(-1, 1) translate(-163.522993, -71.680272) " points="218 90.3164832 134.808512 43.7718566 134.808512 143.360544 109.045986 128.947228 109.045986 5.68434189e-14 218 60.9580711"></polygon>
                    <polygon id="路径-3备份" fill="#E1E1E1" transform="translate(150.620544, 93.184354) scale(-1, 1) translate(-150.620544, -93.184354) " points="192.195102 89.9097162 109.045986 43.0081633 109.045986 143.360544"></polygon>
                    <polygon id="路径-3" fill="#E1E1E1" points="108.954014 89.9097162 25.804898 43.0081633 25.804898 143.360544"></polygon>
                </g>
                <path d="M270.551095,123 L270.551095,85.7979388 L285.890673,105.725054 L286.177395,105.725054 L301.588653,85.7979388 L301.588653,123 L310.118605,123 L310.118605,72.1070068 L302.162095,72.1070068 L286.034034,93.1810068 L269.977653,72.1070068 L262.021143,72.1070068 L262.021143,123 L270.551095,123 Z M338.145592,123.860163 C343.9278,123.860163 348.598965,121.972583 352.159085,118.197422 C355.719205,114.422261 357.499265,109.834723 357.499265,104.43481 C357.499265,99.0348957 355.719205,94.4354116 352.159085,90.6363571 C348.598965,86.8373027 343.9278,84.9377755 338.145592,84.9377755 C332.41117,84.9377755 327.763899,86.8373027 324.203779,90.6363571 C320.643659,94.4354116 318.863599,99.0348957 318.863599,104.43481 C318.863599,109.834723 320.643659,114.422261 324.203779,118.197422 C327.763899,121.972583 332.41117,123.860163 338.145592,123.860163 Z M338.145592,116.333735 C335.039447,116.333735 332.470904,115.234637 330.439963,113.036442 C328.409022,110.838247 327.393551,107.971036 327.393551,104.43481 C327.393551,100.850796 328.409022,97.9596916 330.439963,95.7614966 C332.470904,93.5633016 335.039447,92.4642041 338.145592,92.4642041 C341.299524,92.4642041 343.89196,93.5633016 345.922901,95.7614966 C347.953842,97.9596916 348.969313,100.850796 348.969313,104.43481 C348.969313,107.971036 347.953842,110.838247 345.922901,113.036442 C343.89196,115.234637 341.299524,116.333735 338.145592,116.333735 Z M373.914048,123 L373.914048,101.424238 C373.914048,98.5570272 374.690584,96.3110454 376.243656,94.6862925 C377.796729,93.0615397 379.93519,92.2491633 382.659041,92.2491633 C385.143957,92.2491633 386.995697,93.0018061 388.214262,94.5070918 C389.432827,96.0123776 390.042109,98.0791587 390.042109,100.707435 L390.042109,100.707435 L390.042109,123 L398.572061,123 L398.572061,99.6322313 C398.572061,95.1880544 397.365443,91.6279342 394.952207,88.9518707 C392.538972,86.2758073 389.134159,84.9377755 384.737769,84.9377755 C381.918345,84.9377755 379.517056,85.499271 377.533901,86.6222619 C375.550747,87.7452528 374.129088,89.1191247 373.268925,90.7438776 L373.268925,90.7438776 L373.268925,85.7979388 L365.384095,85.7979388 L365.384095,123 L373.914048,123 Z M424.735361,123.860163 C428.98839,123.860163 432.679924,122.701332 435.809963,120.38367 C438.940001,118.066008 441.078463,115.019596 442.225347,111.244435 L442.225347,111.244435 L433.623714,111.244435 C432.954698,112.869188 431.831707,114.159433 430.254741,115.11517 C428.677776,116.070907 426.909662,116.548776 424.950401,116.548776 C421.987617,116.548776 419.598274,115.676666 417.782374,113.932446 C415.966474,112.188226 414.89127,109.834723 414.556762,106.871939 L414.556762,106.871939 L442.870469,106.871939 L442.94215,104.219769 C442.94215,98.6764943 441.257663,94.0770102 437.88869,90.4213163 C434.519718,86.7656224 430.111381,84.9377755 424.66368,84.9377755 C419.21598,84.9377755 414.771803,86.8014626 411.33115,90.5288367 C407.890497,94.2562109 406.17017,98.8676417 406.17017,104.363129 C406.17017,110.001977 407.87855,114.661195 411.29531,118.340782 C414.712069,122.02037 419.192086,123.860163 424.735361,123.860163 Z M434.483878,100.564075 L414.700122,100.564075 C415.130204,97.9357982 416.229302,95.8331769 417.997415,94.2562109 C419.765528,92.6792449 421.987617,91.8907619 424.66368,91.8907619 C427.387531,91.8907619 429.609619,92.6792449 431.329946,94.2562109 C433.050272,95.8331769 434.101583,97.9357982 434.483878,100.564075 L434.483878,100.564075 Z M460.647177,123 L460.647177,92.6075646 L466.883361,92.6075646 L466.883361,85.7979388 L460.647177,85.7979388 L460.647177,76.121102 L452.117224,76.121102 L452.117224,85.7979388 L446.454483,85.7979388 L446.454483,92.6075646 L452.117224,92.6075646 L452.117224,123 L460.647177,123 Z M487.455599,123.860163 C493.285594,123.860163 497.466943,121.805329 499.999646,117.69566 L499.999646,117.69566 L499.999646,123 L507.884476,123 L507.884476,85.869619 L499.999646,85.869619 L499.999646,91.1739592 C497.466943,87.0642902 493.285594,85.0094558 487.455599,85.0094558 C482.151259,85.0094558 477.957963,86.8611961 474.875711,90.5646769 C471.793459,94.2681576 470.252333,98.8915351 470.252333,104.43481 C470.252333,109.978084 471.793459,114.601461 474.875711,118.304942 C477.957963,122.008423 482.151259,123.860163 487.455599,123.860163 Z M489.247605,116.333735 C486.093673,116.333735 483.560971,115.198797 481.649497,112.928922 C479.738023,110.659046 478.782286,107.827676 478.782286,104.43481 C478.782286,101.041943 479.738023,98.2225193 481.649497,95.9765374 C483.560971,93.6827687 486.093673,92.5358844 489.247605,92.5358844 C492.449324,92.5358844 494.993974,93.6588753 496.881554,95.9048571 C498.769135,98.150839 499.712925,100.994156 499.712925,104.43481 C499.712925,107.875463 498.769135,110.71878 496.881554,112.964762 C494.993974,115.210744 492.449324,116.333735 489.247605,116.333735 Z" id="Moneta" fill="#272727" fill-rule="nonzero"></path>
            </g>
        </g>
    </g>
</svg>