<?xml version="1.0" encoding="UTF-8"?>
<svg width="60px" height="49px" viewBox="0 0 60 49" version="1.1" xmlns="http://www.w3.org/2000/svg" xmlns:xlink="http://www.w3.org/1999/xlink">
    <title>矩形</title>
    <g id="web" stroke="none" stroke-width="1" fill="none" fill-rule="evenodd">
        <g id="画板" transform="translate(-81.000000, -216.000000)" fill="#FFFFFF" fill-rule="nonzero">
            <g id="编组-9备份" transform="translate(81.000000, 216.000000)">
                <g id="home" transform="translate(18.000000, 13.000000)">
                    <path d="M22.653092,9.7294275 L12.315782,0.3101175 C11.862047,-0.1033875 11.177822,-0.1033425 10.724267,0.3100725 L0.386911962,9.7294725 C0.0234469616,10.0606725 -0.0966130384,10.5709725 0.0809569616,11.0294775 C0.258571962,11.4879825 0.691021962,11.7842175 1.18273696,11.7842175 L2.83378696,11.7842175 L2.83378696,21.2216625 C2.83378696,21.5958375 3.13717696,21.8992725 3.51135196,21.8992725 L9.17748196,21.8992725 C9.55165696,21.8992725 9.85504696,21.5958825 9.85504696,21.2216625 L9.85504696,15.4915425 L13.185137,15.4915425 L13.185137,21.2217075 C13.185137,21.5958825 13.488527,21.8992725 13.862702,21.8992725 L19.528562,21.8992725 C19.902737,21.8992725 20.206127,21.5959275 20.206127,21.2217075 L20.206127,11.7842175 L21.857492,11.7842175 C22.349162,11.7842175 22.781657,11.4879375 22.959272,11.0294775 C23.136617,10.5709275 23.016557,10.0606725 22.653092,9.7294275 Z" id="路径"></path>
                    <path d="M20.02914,1.38285 L15.478785,1.38285 L20.706705,6.13647 L20.706705,2.06037 C20.706705,1.686195 20.40336,1.38285 20.02914,1.38285 Z" id="路径"></path>
                </g>
            </g>
        </g>
    </g>
</svg>