<?xml version="1.0" encoding="UTF-8"?>
<svg width="27px" height="24px" viewBox="0 0 27 24" version="1.1" xmlns="http://www.w3.org/2000/svg" xmlns:xlink="http://www.w3.org/1999/xlink">
    <title>编组 3</title>
    <defs>
        <path d="M6.45830683,8.73375446e-14 C10.0251374,8.73375446e-14 12.9166137,2.89147623 12.9166137,6.45830683 C12.9166137,10.0251374 10.0251374,12.9166137 6.45830683,12.9166137 C2.89147623,12.9166137 -2.91618581e-13,10.0251374 -2.91618581e-13,6.45830683 C-2.91618581e-13,2.89147623 2.89147623,8.73375446e-14 6.45830683,8.73375446e-14" id="path-1"></path>
    </defs>
    <g id="web" stroke="none" stroke-width="1" fill="none" fill-rule="evenodd">
        <g id="首页备份-2" transform="translate(-1382.000000, -73.000000)">
            <g id="编组-3" transform="translate(1382.000000, 73.000000)">
                <path d="M14,2 C19.5228475,2 24,6.4771525 24,12 C24,17.5228475 19.5228475,22 14,22 C8.4771525,22 4,17.5228475 4,12 C4,6.4771525 8.4771525,2 14,2 Z M13.9999735,5.54166667 C10.4331429,5.54166667 7.54166667,8.4331429 7.54166667,11.9999735 C7.54166667,15.5668041 10.4331429,18.4582803 13.9999735,18.4582803 C17.5668041,18.4582803 20.4582803,15.5668041 20.4582803,11.9999735 C20.4582803,8.4331429 17.5668041,5.54166667 13.9999735,5.54166667 Z" id="形状结合" fill="#2DE0D8"></path>
                <g id="形状结合" transform="translate(7.750000, 5.750000)">
                    <mask id="mask-2" fill="white">
                        <use xlink:href="#path-1"></use>
                    </mask>
                    <use id="蒙版" fill="#FFFFFF" xlink:href="#path-1"></use>
                    <path d="M6.45833333,7.5 C8.98963844,7.5 11.0416667,9.55202823 11.0416667,12.0833333 C11.0416667,14.6146384 8.98963844,16.6666667 6.45833333,16.6666667 C3.92702823,16.6666667 1.875,14.6146384 1.875,12.0833333 C1.875,9.55202823 3.92702823,7.5 6.45833333,7.5 Z M6.5625,2.70833333 C7.65556357,2.70833333 8.54166667,3.59443643 8.54166667,4.6875 C8.54166667,5.78056357 7.65556357,6.66666667 6.5625,6.66666667 C5.46943643,6.66666667 4.58333333,5.78056357 4.58333333,4.6875 C4.58333333,3.59443643 5.46943643,2.70833333 6.5625,2.70833333 Z" fill="#2DE0D8" mask="url(#mask-2)"></path>
                </g>
            </g>
        </g>
    </g>
</svg>