<?xml version="1.0" encoding="UTF-8"?>
<svg width="361px" height="232px" viewBox="0 0 361 232" version="1.1" xmlns="http://www.w3.org/2000/svg" xmlns:xlink="http://www.w3.org/1999/xlink">
    <title>编组 11</title>
    <g id="web" stroke="none" stroke-width="1" fill="none" fill-rule="evenodd">
        <g id="欢迎页" transform="translate(-663.000000, -399.000000)">
            <g id="编组-11" transform="translate(663.000000, 399.000000)">
                <rect id="矩形" fill="#FFFFFF" x="0" y="121.890365" width="110" height="110" rx="55"></rect>
                <g id="编组-8" transform="translate(26.112319, 148.068437)" fill-rule="nonzero">
                    <path d="M24.8088052,28.3007616 L28.1640058,57.0602521 C28.1733656,57.0602521 28.1824998,57.0602521 28.1918596,57.0602521 C44.1262713,57.0602521 57.0451411,44.1991427 57.0602521,28.32851 L51.9296246,19.8470442 L24.8088052,28.3007616 Z" id="路径" fill="#FFF145"></path>
                    <path d="M28.3726957,0 L16.5392035,5.13897625 L28.34499,28.9153681 L46.8528737,28.9436061 L51.9565629,23.804291 L57.0602521,28.9432673 C57.0602521,28.9338923 57.0602521,28.9247431 57.0602521,28.9153681 C57.0602521,12.9550274 44.2189215,0.0151355654 28.3726957,0 Z" id="路径" fill="#FFF684"></path>
                    <path d="M28.7843906,46.8203179 L28.8125278,21.5009645 L3.55271368e-14,28.2249971 C3.55271368e-14,28.2343371 3.55271368e-14,28.2434521 3.55271368e-14,28.2527921 C3.55271368e-14,44.153571 12.8848274,57.045173 28.7847282,57.0602521 L33.9053672,51.9404538 L28.7843906,46.8203179 Z" id="路径" fill="#F6E621"></path>
                    <path d="M10.2782914,28.7843906 L28.9153681,28.8125278 L28.9436061,10.2419532 L23.804291,5.12097662 L28.9432673,1.49213975e-13 C28.9338923,1.49213975e-13 28.9247431,1.49213975e-13 28.9153681,1.49213975e-13 C12.9550274,1.49213975e-13 0.0151355654,12.8848274 0,28.7847282 L5.13897625,33.9053672 L10.2782914,28.7843906 Z" id="路径" fill="#FFF145"></path>
                    <path d="M28.9436061,9.9235221 L19.8470442,28.1166459 L28.9436061,46.3097698 C38.9913928,46.3097698 47.13673,38.1644326 47.13673,28.1166459 C47.13673,18.0688593 38.9913928,9.9235221 28.9436061,9.9235221 Z" id="路径" fill="#F8D938"></path>
                    <path d="M9.9235221,28.1166459 C9.9235221,38.1644326 18.0688593,46.3097698 28.1166459,46.3097698 L28.1166459,9.9235221 C18.0688593,9.9235221 9.9235221,18.0688593 9.9235221,28.1166459 Z" id="路径" fill="#FBD437"></path>
                    <path d="M28.5776744,16.5392035 L20.6740044,28.1166459 L28.5776744,39.6940884 C35.1738293,39.6940884 40.5210486,34.510702 40.5210486,28.1166459 C40.5210486,21.7225899 35.1738293,16.5392035 28.5776744,16.5392035 Z" id="路径" fill="#FFCD37"></path>
                    <path d="M16.5392035,28.1166459 C16.5392035,34.510702 21.7225899,39.6940884 28.1166459,39.6940884 L28.1166459,16.5392035 C21.7225899,16.5392035 16.5392035,21.7225899 16.5392035,28.1166459 Z" id="路径" fill="#FFDE7A"></path>
                    <polygon id="路径" fill="#F8F338" points="29.7705663 23.1548849 28.1166459 23.1548849 26.4627256 28.1166459 28.1166459 33.078407 29.7705663 33.078407"></polygon>
                    <polygon id="路径" fill="#FBD337" points="26.4627256 23.1548849 28.1166459 23.1548849 28.1166459 33.078407 26.4627256 33.078407"></polygon>
                </g>
                <rect id="矩形备份" fill="#FFFFFF" x="0" y="0" width="110" height="110" rx="55"></rect>
                <g id="cash" transform="translate(24.178073, 24.276704)" fill-rule="nonzero">
                    <path d="M19.9469102,22.0020463 L9.97345508,41.9489565 L19.9469102,61.8958666 C30.9632864,61.8958666 39.8938203,52.9653327 39.8938203,41.9489565 C39.8938203,30.9325802 30.9632864,22.0020463 19.9469102,22.0020463 Z" id="路径" fill="#E8AD33"></path>
                    <path d="M0,41.9489565 C0,52.9653327 8.9305339,61.8958666 19.9469102,61.8958666 L19.9469102,22.0020463 C8.9305339,22.0020463 0,30.9325802 0,41.9489565 Z" id="路径" fill="#F8B338"></path>
                    <path d="M19.9469102,29.2554682 L13.600166,41.9489565 L19.9469102,54.6424448 C26.9573424,54.6424448 32.6403984,48.9593887 32.6403984,41.9489565 C32.6403984,34.9385243 26.9573424,29.2554682 19.9469102,29.2554682 Z" id="路径" fill="#E6B536"></path>
                    <path d="M7.25342187,41.9489565 C7.25342187,48.9593887 12.9364779,54.6424448 19.9469102,54.6424448 L19.9469102,29.2554682 C12.9364779,29.2554682 7.25342187,34.9385243 7.25342187,41.9489565 Z" id="路径" fill="#FCC370"></path>
                    <path d="M30.9479333,11.0010232 L20.9744782,30.9479333 L30.9479333,50.8948435 C41.9643096,50.8948435 50.8948435,41.9643096 50.8948435,30.9479333 C50.8948435,19.9315571 41.9643096,11.0010232 30.9479333,11.0010232 Z" id="路径" fill="#FBDF37"></path>
                    <path d="M11.0010232,30.9479333 C11.0010232,41.9643096 19.9315571,50.8948435 30.9479333,50.8948435 L30.9479333,11.0010232 C19.9315571,11.0010232 11.0010232,19.9315571 11.0010232,30.9479333 Z" id="路径" fill="#FFCE37"></path>
                    <path d="M30.9479333,18.254445 L24.6011892,30.9479333 L30.9479333,43.6414216 C37.9583656,43.6414216 43.6414216,37.9583656 43.6414216,30.9479333 C43.6414216,23.9375011 37.9583656,18.254445 30.9479333,18.254445 Z" id="路径" fill="#FFCD37"></path>
                    <path d="M18.254445,30.9479333 C18.254445,37.9583656 23.9375011,43.6414216 30.9479333,43.6414216 L30.9479333,18.254445 C23.9375011,18.254445 18.254445,23.9375011 18.254445,30.9479333 Z" id="路径" fill="#FFDE7A"></path>
                    <path d="M41.9489565,0 L31.9755014,19.9469102 L41.9489565,39.8938203 C52.9653327,39.8938203 61.8958666,30.9632864 61.8958666,19.9469102 C61.8958666,8.9305339 52.9653327,0 41.9489565,0 Z" id="路径" fill="#FFF145"></path>
                    <path d="M22.0020463,19.9469102 C22.0020463,30.9632864 30.9325802,39.8938203 41.9489565,39.8938203 L41.9489565,0 C30.9325802,0 22.0020463,8.9305339 22.0020463,19.9469102 Z" id="路径" fill="#FFF684"></path>
                    <path d="M41.9489565,7.25342187 L35.6022124,19.9469102 L41.9489565,32.6403984 C48.9593887,32.6403984 54.6424448,26.9573424 54.6424448,19.9469102 C54.6424448,12.9364779 48.9593887,7.25342187 41.9489565,7.25342187 Z" id="路径" fill="#F8D938"></path>
                    <path d="M29.2554682,19.9469102 C29.2554682,26.9573424 34.9385243,32.6403984 41.9489565,32.6403984 L41.9489565,7.25342187 C34.9385243,7.25342187 29.2554682,12.9364779 29.2554682,19.9469102 Z" id="路径" fill="#FBD437"></path>
                    <polygon id="路径" fill="#F8F238" points="43.762312 14.5068437 41.9489565 14.5068437 40.135601 19.9469102 41.9489565 25.3869766 43.762312 25.3869766"></polygon>
                    <polygon id="路径" fill="#FBC137" points="40.135601 14.5068437 41.9489565 14.5068437 41.9489565 25.3869766 40.135601 25.3869766"></polygon>
                </g>
                <g id="编组-10" transform="translate(122.824610, 121.890365)">
                    <rect id="矩形备份-2" fill="#FFFFFF" x="0" y="0" width="110" height="110" rx="55"></rect>
                    <g id="fire" transform="translate(29.013687, 23.276704)" fill-rule="nonzero">
                        <path d="M0.869295181,31.1296467 C0.869295181,31.1296467 3.39974603,34.8344112 8.70333482,37.9703148 C8.70333482,37.9703148 4.86224854,5.61867058 29.8894182,0 C23.4773498,23.4527043 38.0457063,30.0667257 43.3561754,17.6762038 C52.2246375,29.4761725 45.4910713,39.7710221 45.4910713,39.7710221 C49.1274998,40.2931325 52.1821047,36.3339202 52.1821047,36.3339202 C52.2093757,36.8216221 52.2246375,37.3126901 52.2246375,37.8072488 C52.2246375,52.1792469 40.5338745,63.8301125 26.1123813,63.8301125 C11.6908881,63.8301125 0,52.1792469 0,37.8071242 C0,35.4985186 0.303233778,33.2607247 0.869295181,31.1296467 Z" id="路径" fill="#FFCEF1"></path>
                        <path d="M52.1821048,36.3339202 C52.1821048,36.3339202 49.1275072,40.2931325 45.4910874,39.7710221 C45.4910874,39.7710221 52.2246375,29.4761725 43.3561966,17.6762038 C38.0457402,30.0667257 23.4774187,23.4527043 29.8894717,0 C28.5490665,0.300949007 27.2921005,0.679067622 26.1123187,1.12425772 L26.1123187,63.8301125 C40.5337774,63.8301125 52.2246375,52.1792469 52.2246375,37.8071242 C52.2246375,37.3125655 52.2093758,36.8216221 52.1821048,36.3339202 Z" id="路径" fill="#FF23C1"></path>
                        <path d="M14.5068437,53.2559522 C14.5068437,59.6299821 19.7028369,64.7972354 26.1123187,64.7972354 C32.5218006,64.7972354 37.7177937,59.6299821 37.7177937,53.2559522 C37.7177937,49.8442741 36.2293305,46.7784158 33.8628247,44.6655481 C29.3757564,50.727798 22.9814876,41.5318623 27.9647526,34.816425 C27.9647526,34.816425 14.5068437,36.4935823 14.5068437,53.2559522 Z" id="路径" fill="#FF92F5"></path>
                        <path d="M37.7177937,53.2559522 C37.7177937,49.8442741 36.2293305,46.7784158 33.8628247,44.6655481 C29.3757564,50.727798 22.9814876,41.5318623 27.9647526,34.816425 C27.9647526,34.816425 27.2335153,34.9078284 26.1123187,35.2596998 L26.1123187,64.7972354 C32.5218006,64.7972354 37.7177937,59.6299821 37.7177937,53.2559522 Z" id="路径" fill="#FF79D9"></path>
                    </g>
                </g>
                <rect id="矩形备份-3" fill="#FFFFFF" x="122.82461" y="0" width="110" height="110" rx="55"></rect>
                <g id="capital" transform="translate(147.969806, 25.243827)" fill-rule="nonzero">
                    <path d="M29.9808104,0 L25.6978375,8.56594583 L29.9808104,17.1318917 C34.711611,17.1318917 38.5467562,13.2967464 38.5467562,8.56594583 C38.5467562,3.83514527 34.711611,0 29.9808104,0 Z" id="路径" fill="#FFCD37"></path>
                    <path d="M20.55827,8.56594583 C20.55827,13.2967464 24.7769298,17.1318917 29.9808104,17.1318917 L29.9808104,0 C24.7769298,0 20.55827,3.83514527 20.55827,8.56594583 Z" id="路径" fill="#FFDE7A"></path>
                    <path d="M29.9808104,6.85275666 L25.6978375,15.4187025 L29.9808104,23.9846483 C34.711611,23.9846483 38.5467562,20.1495031 38.5467562,15.4187025 C38.5467562,10.6879019 34.711611,6.85275666 29.9808104,6.85275666 Z" id="路径" fill="#FBA837"></path>
                    <path d="M20.55827,15.4187025 C20.55827,20.1495031 24.7769298,23.9846483 29.9808104,23.9846483 L29.9808104,6.85275666 C24.7769298,6.85275666 20.55827,10.6879019 20.55827,15.4187025 Z" id="路径" fill="#FFCD37"></path>
                    <path d="M29.9808104,14.5621079 L25.6978375,23.1280537 L29.9808104,31.6939996 C34.711611,31.6939996 38.5467562,27.8588543 38.5467562,23.1280537 C38.5467562,18.3972532 34.711611,14.5621079 29.9808104,14.5621079 Z" id="路径" fill="#FFCD37"></path>
                    <path d="M20.55827,23.1280537 C20.55827,27.8588543 24.7769298,31.6939996 29.9808104,31.6939996 L29.9808104,14.5621079 C24.7769298,14.5621079 20.55827,18.3972532 20.55827,23.1280537 Z" id="路径" fill="#FFDE7A"></path>
                    <path d="M56.493201,3.42637833 C54.5775928,3.42637833 53.0247812,5.00174107 53.0247812,6.94516936 L53.0247812,28.1521018 L22.2714592,54.0969691 L30.3644387,59.9616208 L49.5563615,59.9616208 L49.5563615,53.4227687 L59.9616208,37.5882091 L59.9616208,6.94516936 C59.9616208,5.00174107 58.4088093,3.42637833 56.493201,3.42637833 Z" id="路径" fill="#FFB9A7"></path>
                    <path d="M32.1394401,40.751455 L47.0914653,25.8688966 C48.4680659,24.4986917 50.6999307,24.4986917 52.0764137,25.8688966 C53.4530143,27.2391015 53.4530143,29.4605971 52.0764137,30.830685 L40.6541305,42.2000175 L40.6541305,46.0095988 C40.6541305,51.8227949 35.9196868,56.5352425 30.0793567,56.5352425 L26.5544321,51.1262312 L30.0793567,45.7172198 C30.0793567,43.7796827 30.8640049,42.0213155 32.1394401,40.751455 Z" id="路径" fill="#FFDFD0"></path>
                    <path d="M22.8955017,42.0071069 L7.02675244,28.1521018 L7.02675244,6.94516936 C7.02675244,5.00174107 5.45381391,3.42637833 3.51337622,3.42637833 C1.57293853,3.42637833 0,5.00174107 0,6.94516936 L0,37.5882091 L10.5401287,53.4227687 L10.5401287,59.9616208 L29.9808104,59.9616208 L29.9808104,56.4428298 L22.8955017,42.0071069 Z" id="路径" fill="#FFCDB6"></path>
                    <path d="M27.9119116,40.7513968 L12.8959047,25.8689004 C11.5134135,24.4986904 9.27199829,24.4986904 7.88962507,25.8689004 C6.50713386,27.2391103 6.50713386,29.4606141 7.88962507,30.8307071 L19.3607857,42.1999646 L19.3607857,46.00956 C19.3607857,51.8227775 24.1154888,56.5352425 29.9808104,56.5352425 L29.9808104,45.7171799 C29.9808104,43.7796357 29.1928046,42.0212619 27.9119116,40.7513968 L27.9119116,40.7513968 Z" id="路径" fill="#FFDEBF"></path>
                </g>
                <g id="编组-12" transform="translate(250.484835, 0.000000)">
                    <rect id="矩形备份-4" fill="#FFFFFF" x="0" y="0" width="110" height="110" rx="55"></rect>
                    <g id="arrows" transform="translate(21.276704, 23.309581)" fill-rule="nonzero">
                        <polygon id="路径" fill="#82FFF9" points="21.5295041 39.9248178 21.5295041 29.1667392 0 29.1667392 0 10.7580787 21.5295041 10.7580787 21.5295041 0 46.0003336 19.963188"></polygon>
                        <polygon id="路径" fill="#FF8ADE" points="67.6986041 35.0601417 67.6986041 53.4688021 46.1691001 53.4688021 46.1691001 64.2268809 21.6982706 44.2642123 46.1691001 24.302063 46.1691001 35.0601417"></polygon>
                        <polygon id="路径" fill="#2DE0D8" points="21.5295041 39.9248178 21.5295041 29.1663193 0 29.1663193 0 19.9624089 46.0003336 19.9624089"></polygon>
                        <polygon id="路径" fill="#FF23C1" points="67.6986041 44.2644719 67.6986041 53.468942 46.1691001 53.468942 46.1691001 64.2268809 21.6982706 44.2644719"></polygon>
                    </g>
                </g>
                <rect id="矩形备份-5" fill="#FFFFFF" x="250" y="122" width="110" height="110" rx="55"></rect>
                <g id="编组-7" transform="translate(269.000000, 149.000000)" fill-rule="nonzero">
                    <g id="编组-6" transform="translate(0.000000, 12.000000)">
                        <g id="编组-5" fill="#A0EFFF">
                            <circle id="椭圆形" cx="17.6538462" cy="10.3846154" r="10.3846154"></circle>
                            <path d="M17.1346154,20.7692308 C7.68704538,20.7692308 0,28.5339231 0,38.0769231 L0,41.5384615 L17.1346154,41.5384615 L34.2692308,41.5384615 L34.2692308,38.0769231 C34.2692308,28.5339231 26.5821854,20.7692308 17.1346154,20.7692308 Z" id="路径"></path>
                        </g>
                        <path d="M28.0384615,10.3846154 C28.0384615,4.65830769 23.3801538,0 17.6538462,0 L17.6538462,20.7692308 C23.3801538,20.7692308 28.0384615,16.1109231 28.0384615,10.3846154 Z" id="路径" fill="#4DF7FF"></path>
                        <path d="M34.2692308,38.0769231 C34.2692308,28.5339231 26.8151262,20.7692308 17.6538462,20.7692308 L17.6538462,41.5384615 L34.2692308,41.5384615 L34.2692308,38.0769231 Z" id="路径" fill="#4DF7FF"></path>
                    </g>
                    <g id="编组-2" transform="translate(25.000000, 0.000000)">
                        <circle id="椭圆形" fill="#A0EFFF" cx="23.8846154" cy="13.5" r="13.5"></circle>
                        <path d="M37.3846154,13.5 C37.3846154,6.054525 31.3300904,0 23.8846154,0 L23.8846154,27 C31.3300904,27 37.3846154,20.945475 37.3846154,13.5 Z" id="路径" fill="#4DF7FF"></path>
                        <path d="M23.8846154,27 C10.7160033,27 0,37.599525 0,50.625 L0,54 L23.8846154,54 L47.7692308,54 L47.7692308,50.625 C47.7692308,37.599525 37.0532275,27 23.8846154,27 Z" id="路径" fill="#A0EFFF"></path>
                        <path d="M46.7307692,50.625 C46.7307692,37.599525 36.0147659,27 22.8461538,27 L22.8461538,54 L46.7307692,54 L46.7307692,50.625 Z" id="路径" fill="#4DF7FF"></path>
                    </g>
                </g>
            </g>
        </g>
    </g>
</svg>