<?xml version="1.0" encoding="UTF-8"?>
<svg width="86px" height="86px" viewBox="0 0 86 86" version="1.1" xmlns="http://www.w3.org/2000/svg" xmlns:xlink="http://www.w3.org/1999/xlink">
    <title>矩形备份 20</title>
    <g id="web" stroke="none" stroke-width="1" fill="none" fill-rule="evenodd">
        <g id="首页" transform="translate(-578.000000, -817.000000)" fill-rule="nonzero">
            <g id="编组-30" transform="translate(578.000000, 817.000000)">
                <g id="编组-7" transform="translate(11.000000, 18.000000)">
                    <g id="编组-6" transform="translate(0.000000, 10.961538)">
                        <g id="编组-5" fill="#A0EFFF">
                            <circle id="椭圆形" cx="16.1261095" cy="9.48594675" r="9.48594675"></circle>
                            <path d="M15.6518121,18.9718935 C7.0218203,18.9718935 0,26.0646413 0,34.7818047 L0,37.943787 L15.6518121,37.943787 L31.3036243,37.943787 L31.3036243,34.7818047 C31.3036243,26.0646413 24.281804,18.9718935 15.6518121,18.9718935 Z" id="路径"></path>
                        </g>
                        <path d="M25.6120562,9.48594675 C25.6120562,4.25518491 21.3568713,0 16.1261095,0 L16.1261095,18.9718935 C21.3568713,18.9718935 25.6120562,14.7167086 25.6120562,9.48594675 Z" id="路径" fill="#4DF7FF"></path>
                        <path d="M31.3036243,34.7818047 C31.3036243,26.0646413 24.4945864,18.9718935 16.1261095,18.9718935 L16.1261095,37.943787 L31.3036243,37.943787 L31.3036243,34.7818047 Z" id="路径" fill="#4DF7FF"></path>
                    </g>
                    <g id="编组-2" transform="translate(19.836538, 0.000000)">
                        <circle id="椭圆形" fill="#A0EFFF" cx="21.8176775" cy="12.3317308" r="12.3317308"></circle>
                        <path d="M34.1494083,12.3317308 C34.1494083,5.53057572 28.6188326,0 21.8176775,0 L21.8176775,24.6634615 C28.6188326,24.6634615 34.1494083,19.1328858 34.1494083,12.3317308 Z" id="路径" fill="#4DF7FF"></path>
                        <path d="M21.8176775,24.6634615 C9.78865686,24.6634615 0,34.34572 0,46.2439904 L0,49.3269231 L21.8176775,49.3269231 L43.635355,49.3269231 L43.635355,46.2439904 C43.635355,34.34572 33.8466982,24.6634615 21.8176775,24.6634615 Z" id="路径" fill="#A0EFFF"></path>
                        <path d="M42.6867604,46.2439904 C42.6867604,34.34572 32.8981035,24.6634615 20.8690828,24.6634615 L20.8690828,49.3269231 L42.6867604,49.3269231 L42.6867604,46.2439904 Z" id="路径" fill="#4DF7FF"></path>
                    </g>
                </g>
            </g>
        </g>
    </g>
</svg>