<?xml version="1.0" encoding="UTF-8"?>
<svg width="86px" height="86px" viewBox="0 0 86 86" version="1.1" xmlns="http://www.w3.org/2000/svg" xmlns:xlink="http://www.w3.org/1999/xlink">
    <title>矩形备份 17</title>
    <g id="web" stroke="none" stroke-width="1" fill="none" fill-rule="evenodd">
        <g id="首页" transform="translate(-578.000000, -424.000000)" fill-rule="nonzero">
            <g id="编组-27" transform="translate(578.000000, 424.000000)">
                <g id="fire" transform="translate(17.000000, 10.000000)">
                    <path d="M0.898846638,32.1878906 C0.898846638,32.1878906 3.51531948,36.0185977 8.99920235,39.2611055 C8.99920235,39.2611055 5.02753937,5.80967578 30.9055009,0 C24.275456,24.2499727 39.3390598,31.0888359 44.8300569,18.2771016 C54,30.478207 47.037528,41.1230273 47.037528,41.1230273 C50.7975759,41.6628867 53.9560213,37.569082 53.9560213,37.569082 C53.9842194,38.0733633 54,38.581125 54,39.0924961 C54,53.9530664 41.9118127,66 27.0000647,66 C12.0883167,66 0,53.9530664 0,39.0923672 C0,36.7052813 0.313542128,34.3914141 0.898846638,32.1878906 Z" id="路径" fill="#FFCEF1"></path>
                    <path d="M53.9560214,37.569082 C53.9560214,37.569082 50.7975836,41.6628867 47.0375447,41.1230273 C47.0375447,41.1230273 54,30.478207 44.8300789,18.2771016 C39.3390949,31.0888359 24.2755272,24.2499727 30.9055562,0 C29.5195844,0.311179688 28.2198881,0.702152344 27,1.16247656 L27,66 C41.9117123,66 54,53.9530664 54,39.0923672 C54,38.5809961 53.9842195,38.0733633 53.9560214,37.569082 Z" id="路径" fill="#FF6BD5"></path>
                    <path d="M15,55.066374 C15,61.6570873 20.3726296,67 27,67 C33.6273704,67 39,61.6570873 39,55.066374 C39,51.5387168 37.4609368,48.3686355 35.0139823,46.1839414 C30.3743773,52.4522758 23.762737,42.9437268 28.9154068,36 C28.9154068,36 15,37.7341718 15,55.066374 Z" id="路径" fill="#FF92F5"></path>
                    <path d="M39,55.066374 C39,51.5387168 37.4609368,48.3686355 35.0139823,46.1839414 C30.3743773,52.4522758 23.762737,42.9437268 28.9154068,36 C28.9154068,36 28.1593114,36.0945106 27,36.4583438 L27,67 C33.6273704,67 39,61.6570873 39,55.066374 Z" id="路径" fill="#FF79D9"></path>
                </g>
            </g>
        </g>
    </g>
</svg>