<?xml version="1.0" encoding="UTF-8"?>
<svg width="86px" height="86px" viewBox="0 0 86 86" version="1.1" xmlns="http://www.w3.org/2000/svg" xmlns:xlink="http://www.w3.org/1999/xlink">
    <title>矩形</title>
    <g id="web" stroke="none" stroke-width="1" fill="none" fill-rule="evenodd">
        <g id="首页" transform="translate(-578.000000, -160.000000)" fill-rule="nonzero">
            <g id="编组-13" transform="translate(578.000000, 160.000000)">
                <g id="cash-flow" transform="translate(13.000000, 13.000000)">
                    <path d="M26.4217391,30.1407235 L29.9950766,60.77 C30.0050449,60.77 30.014773,60.77 30.0247414,60.77 C46.995122,60.77 60.7539066,47.0727311 60.77,30.170276 L55.3058069,21.1373913 L26.4217391,30.1407235 Z" id="路径" fill="#FFF145"></path>
                    <path d="M30.2173344,0 L17.6144928,5.4730846 L30.1878274,30.7952884 L49.8989933,30.8253623 L55.3344967,25.3519168 L60.77,30.8250014 C60.77,30.8150169 60.77,30.805273 60.77,30.7952884 C60.77,13.797293 47.0937958,0.0161195977 30.2173344,0 Z" id="路径" fill="#FFF684"></path>
                    <path d="M30.6557954,49.8643209 L30.685762,22.8988406 L0,30.0600332 C0,30.0699805 0,30.0796881 0,30.0896353 C0,47.0241966 13.7225289,60.7539406 30.656155,60.77 L36.1097101,55.3173402 L30.6557954,49.8643209 Z" id="路径" fill="#F6E621"></path>
                    <path d="M10.9465301,30.6557954 L30.7952884,30.685762 L30.8253623,10.9078295 L25.3519168,5.45391473 L30.8250014,0 C30.8150169,0 30.805273,0 30.7952884,0 C13.797293,0 0.0161195977,13.7225289 0,30.656155 L5.4730846,36.1097101 L10.9465301,30.6557954 Z" id="路径" fill="#FFF145"></path>
                    <path d="M30.8253623,10.5686957 L21.1373913,29.9446377 L30.8253623,49.3205797 C41.5264015,49.3205797 50.2013043,40.6456769 50.2013043,29.9446377 C50.2013043,19.2435985 41.5264015,10.5686957 30.8253623,10.5686957 Z" id="路径" fill="#F8D938"></path>
                    <path d="M10.5686957,29.9446377 C10.5686957,40.6456769 19.2435985,49.3205797 29.9446377,49.3205797 L29.9446377,10.5686957 C19.2435985,10.5686957 10.5686957,19.2435985 10.5686957,29.9446377 Z" id="路径" fill="#FBD437"></path>
                    <path d="M30.4356397,17.6144928 L22.0181159,29.9446377 L30.4356397,42.2747826 C37.4606408,42.2747826 43.1555072,36.7544006 43.1555072,29.9446377 C43.1555072,23.1348748 37.4606408,17.6144928 30.4356397,17.6144928 Z" id="路径" fill="#FFCD37"></path>
                    <path d="M17.6144928,29.9446377 C17.6144928,36.7544006 23.1348748,42.2747826 29.9446377,42.2747826 L29.9446377,17.6144928 C23.1348748,17.6144928 17.6144928,23.1348748 17.6144928,29.9446377 Z" id="路径" fill="#FFDE7A"></path>
                    <polygon id="路径" fill="#F8F338" points="31.706087 24.6602899 29.9446377 24.6602899 28.1831884 29.9446377 29.9446377 35.2289855 31.706087 35.2289855"></polygon>
                    <polygon id="路径" fill="#FBD337" points="28.1831884 24.6602899 29.9446377 24.6602899 29.9446377 35.2289855 28.1831884 35.2289855"></polygon>
                </g>
            </g>
        </g>
    </g>
</svg>