<?xml version="1.0" encoding="UTF-8"?>
<svg width="86px" height="86px" viewBox="0 0 86 86" version="1.1" xmlns="http://www.w3.org/2000/svg" xmlns:xlink="http://www.w3.org/1999/xlink">
    <title>矩形备份 18</title>
    <g id="web" stroke="none" stroke-width="1" fill="none" fill-rule="evenodd">
        <g id="首页" transform="translate(-578.000000, -555.000000)" fill-rule="nonzero">
            <g id="编组-28" transform="translate(578.000000, 555.000000)">
                <g id="编组-16" transform="translate(14.000000, 13.000000)">
                    <g id="capital" transform="translate(0.850000, 0.700000)">
                        <path d="M29.45,0 L25.2428571,8.41428571 L29.45,16.8285714 C34.0970417,16.8285714 37.8642857,13.0613274 37.8642857,8.41428571 C37.8642857,3.767244 34.0970417,0 29.45,0 Z" id="路径" fill="#FFCD37"></path>
                        <path d="M20.1942857,8.41428571 C20.1942857,13.0613274 24.3382541,16.8285714 29.45,16.8285714 L29.45,0 C24.3382541,0 20.1942857,3.767244 20.1942857,8.41428571 Z" id="路径" fill="#FFDE7A"></path>
                        <path d="M29.45,6.73142857 L25.2428571,15.1457143 L29.45,23.56 C34.0970417,23.56 37.8642857,19.792756 37.8642857,15.1457143 C37.8642857,10.4986726 34.0970417,6.73142857 29.45,6.73142857 Z" id="路径" fill="#FBA837"></path>
                        <path d="M20.1942857,15.1457143 C20.1942857,19.792756 24.3382541,23.56 29.45,23.56 L29.45,6.73142857 C24.3382541,6.73142857 20.1942857,10.4986726 20.1942857,15.1457143 Z" id="路径" fill="#FFCD37"></path>
                        <path d="M29.45,14.3042857 L25.2428571,22.7185714 L29.45,31.1328571 C34.0970417,31.1328571 37.8642857,27.3656131 37.8642857,22.7185714 C37.8642857,18.0715297 34.0970417,14.3042857 29.45,14.3042857 Z" id="路径" fill="#FFCD37"></path>
                        <path d="M20.1942857,22.7185714 C20.1942857,27.3656131 24.3382541,31.1328571 29.45,31.1328571 L29.45,14.3042857 C24.3382541,14.3042857 20.1942857,18.0715297 20.1942857,22.7185714 Z" id="路径" fill="#FFDE7A"></path>
                        <path d="M55.4929886,3.36571429 C53.6112962,3.36571429 52.0859772,4.91318522 52.0859772,6.8222051 L52.0859772,27.6536687 L21.8771429,53.139182 L29.8268361,58.9 L48.6789658,58.9 L48.6789658,52.4769183 L58.9,36.9227097 L58.9,6.8222051 C58.9,4.91318522 57.374681,3.36571429 55.4929886,3.36571429 Z" id="路径" fill="#FFB9A7"></path>
                        <path d="M31.5704112,40.0299503 L46.2577107,25.4108876 C47.6099385,24.0649422 49.8022881,24.0649422 51.1544005,25.4108876 C52.5066284,26.7568331 52.5066284,28.938997 51.1544005,30.2848276 L39.9343489,41.452866 L39.9343489,45.1949986 C39.9343489,50.905272 35.2837285,55.5342857 29.5468015,55.5342857 L26.0842857,50.221041 L29.5468015,44.9077962 C29.5468015,43.0045632 30.3175575,41.2773279 31.5704112,40.0299503 Z" id="路径" fill="#FFDFD0"></path>
                        <path d="M22.4901367,41.2633708 L6.90234375,27.6536687 L6.90234375,6.8222051 C6.90234375,4.91318522 5.3572541,3.36571429 3.45117187,3.36571429 C1.54508965,3.36571429 0,4.91318522 0,6.8222051 L0,36.9227097 L10.3535156,52.4769183 L10.3535156,58.9 L29.45,58.9 L29.45,55.4435092 L22.4901367,41.2633708 Z" id="路径" fill="#FFCDB6"></path>
                        <path d="M27.4177311,40.0298931 L12.6675826,25.4108914 C11.3095684,24.064941 9.10783751,24.064941 7.74993922,25.4108914 C6.39192502,26.7568417 6.39192502,28.9390138 7.74993922,30.2848493 L19.0180029,41.452814 L19.0180029,45.1949605 C19.0180029,50.9052549 23.6885239,55.5342857 29.45,55.5342857 L29.45,44.907757 C29.45,43.004517 28.6759458,41.2772752 27.4177311,40.0298931 L27.4177311,40.0298931 Z" id="路径" fill="#FFDEBF"></path>
                    </g>
                </g>
            </g>
        </g>
    </g>
</svg>