<?xml version="1.0" encoding="UTF-8"?>
<svg width="86px" height="86px" viewBox="0 0 86 86" version="1.1" xmlns="http://www.w3.org/2000/svg" xmlns:xlink="http://www.w3.org/1999/xlink">
    <title>矩形备份 16</title>
    <g id="web" stroke="none" stroke-width="1" fill="none" fill-rule="evenodd">
        <g id="首页" transform="translate(-578.000000, -293.000000)" fill-rule="nonzero">
            <g id="编组-26" transform="translate(578.000000, 293.000000)">
                <g id="cash" transform="translate(12.000000, 11.000000)">
                    <path d="M20.625,22.75 L10.3125,43.375 L20.625,64 C32.015875,64 41.25,54.765875 41.25,43.375 C41.25,31.984125 32.015875,22.75 20.625,22.75 Z" id="路径" fill="#E8AD33"></path>
                    <path d="M0,43.375 C0,54.765875 9.234125,64 20.625,64 L20.625,22.75 C9.234125,22.75 0,31.984125 0,43.375 Z" id="路径" fill="#F8B338"></path>
                    <path d="M20.625,30.25 L14.0625,43.375 L20.625,56.5 C27.87375,56.5 33.75,50.62375 33.75,43.375 C33.75,36.12625 27.87375,30.25 20.625,30.25 Z" id="路径" fill="#E6B536"></path>
                    <path d="M7.5,43.375 C7.5,50.62375 13.37625,56.5 20.625,56.5 L20.625,30.25 C13.37625,30.25 7.5,36.12625 7.5,43.375 Z" id="路径" fill="#FCC370"></path>
                    <path d="M32,11.375 L21.6875,32 L32,52.625 C43.390875,52.625 52.625,43.390875 52.625,32 C52.625,20.609125 43.390875,11.375 32,11.375 Z" id="路径" fill="#FBDF37"></path>
                    <path d="M11.375,32 C11.375,43.390875 20.609125,52.625 32,52.625 L32,11.375 C20.609125,11.375 11.375,20.609125 11.375,32 Z" id="路径" fill="#FFCE37"></path>
                    <path d="M32,18.875 L25.4375,32 L32,45.125 C39.24875,45.125 45.125,39.24875 45.125,32 C45.125,24.75125 39.24875,18.875 32,18.875 Z" id="路径" fill="#FFCD37"></path>
                    <path d="M18.875,32 C18.875,39.24875 24.75125,45.125 32,45.125 L32,18.875 C24.75125,18.875 18.875,24.75125 18.875,32 Z" id="路径" fill="#FFDE7A"></path>
                    <path d="M43.375,0 L33.0625,20.625 L43.375,41.25 C54.765875,41.25 64,32.015875 64,20.625 C64,9.234125 54.765875,0 43.375,0 Z" id="路径" fill="#FFF145"></path>
                    <path d="M22.75,20.625 C22.75,32.015875 31.984125,41.25 43.375,41.25 L43.375,0 C31.984125,0 22.75,9.234125 22.75,20.625 Z" id="路径" fill="#FFF684"></path>
                    <path d="M43.375,7.5 L36.8125,20.625 L43.375,33.75 C50.62375,33.75 56.5,27.87375 56.5,20.625 C56.5,13.37625 50.62375,7.5 43.375,7.5 Z" id="路径" fill="#F8D938"></path>
                    <path d="M30.25,20.625 C30.25,27.87375 36.12625,33.75 43.375,33.75 L43.375,7.5 C36.12625,7.5 30.25,13.37625 30.25,20.625 Z" id="路径" fill="#FBD437"></path>
                    <polygon id="路径" fill="#F8F238" points="45.25 15 43.375 15 41.5 20.625 43.375 26.25 45.25 26.25"></polygon>
                    <polygon id="路径" fill="#FBC137" points="41.5 15 43.375 15 43.375 26.25 41.5 26.25"></polygon>
                </g>
            </g>
        </g>
    </g>
</svg>